M48
INCH,TZ
T1C0.0118
T2C0.0236
T3C0.0315
T4C0.0354
T5C0.0394
T6C0.0433
T7C0.0453
T8C0.1260
%
G90
G05
T1
X39863Y-18701
X40650Y-30413
X41024Y-24213
X41240Y-22343
X41333Y-21856
X41339Y-24213
X41562Y-16732
X41562Y-17126
X41634Y-19724
X41693Y-21457
X41831Y-24311
X41831Y-27165
X41831Y-37992
X42008Y-21457
X42199Y-19724
X42205Y-16742
X42323Y-21457
X42323Y-21949
X42323Y-23917
X42323Y-36024
X42323Y-37992
X42421Y-19488
X42520Y-16732
X42559Y-22638
X42577Y-22285
X42600Y-19765
X42647Y-21447
X42815Y-29626
X42815Y-37992
X43071Y-24666
X43307Y-31988
X43307Y-37992
X43543Y-22687
X43898Y-17323
X44193Y-20571
X44783Y-18307
X44783Y-21063
X45374Y-20571
X45374Y-20886
X45768Y-19488
X46063Y-64173
X46260Y-21260
X46260Y-29528
X46260Y-29921
X46447Y-45199
X46457Y-63583
X46549Y-45571
X46549Y-45965
X46555Y-18701
X46949Y-16732
X47183Y-27559
X47244Y-8563
X47421Y-44573
X47435Y-46658
X47441Y-45786
X47480Y-44991
X47480Y-45374
X47628Y-25154
X47638Y-24803
X47834Y-46457
X47835Y-10827
X47933Y-58465
X47933Y-59055
X48130Y-43209
X48228Y-18307
X48228Y-64244
X48307Y-42028
X48307Y-46457
X48327Y-9449
X48327Y-35138
X48327Y-46063
X48455Y-43868
X48524Y-32185
X48524Y-33169
X48524Y-34154
X48622Y-15256
X48622Y-42028
X48622Y-46457
X48622Y-47736
X48937Y-42028
X48937Y-47736
X48996Y-23543
X49114Y-64835
X49213Y-64469
X49252Y-42022
X49311Y-24902
X49311Y-25787
X49311Y-59449
X49331Y-19882
X49331Y-21850
X49331Y-23819
X49331Y-27756
X49331Y-29724
X49567Y-42029
X49705Y-43209
X49803Y-14567
X49902Y-42028
X50000Y-12992
X50197Y-12402
X50197Y-42137
X50295Y-46358
X50492Y-42028
X50610Y-46357
X50807Y-42028
X50886Y-46654
X50953Y-44283
X51043Y-12402
X51181Y-12106
X51181Y-12894
X51181Y-14075
X51181Y-14567
X51181Y-15453
X51181Y-15945
X51181Y-64638
X51280Y-24705
X51378Y-38484
X51537Y-63299
X51537Y-65780
X51553Y-63890
X51553Y-65071
X51567Y-37252
X51567Y-39717
X51575Y-37598
X51575Y-39370
X51969Y-36319
X51969Y-46161
X51969Y-46654
X52075Y-44608
X52087Y-44134
X52165Y-54035
X52264Y-42717
X52362Y-57972
X52362Y-59547
X52412Y-64357
X52461Y-12402
X52461Y-23917
X52461Y-44193
X52854Y-52854
X53051Y-45768
X53051Y-55217
X53150Y-43110
X53445Y-48327
X53543Y-57776
X53543Y-59252
X53642Y-56004
X53740Y-44393
X53937Y-42618
X53968Y-44610
X54134Y-54035
T3
X46063Y-39370
X46063Y-40748
T4
X42747Y-57609
X42747Y-59971
X43731Y-57609
X43731Y-59971
X44716Y-57609
X44716Y-59971
T5
X37402Y-15982
X37402Y-17073
X37402Y-18163
X37402Y-19254
X37402Y-30972
X37402Y-32063
X37402Y-33154
X37402Y-34244
X37465Y-59720
X37465Y-60811
X37465Y-61902
X37465Y-62992
X38520Y-15437
X38520Y-16528
X38520Y-17618
X38520Y-18709
X38520Y-19799
X38520Y-30427
X38520Y-31518
X38520Y-32608
X38520Y-33699
X38520Y-34789
X38583Y-59175
X38583Y-60266
X38583Y-61356
X38583Y-62447
X38583Y-63537
X40748Y-61811
X40748Y-62811
T6
X40354Y-8957
X40354Y-10728
X42913Y-8957
X42913Y-10728
T7
X37402Y-40945
X37402Y-42913
X37402Y-44882
X37402Y-46850
X37402Y-50787
X37402Y-52756
X39370Y-40945
X39370Y-42913
X39370Y-44882
X39370Y-46850
X39370Y-50787
X39370Y-52756
T8
X37402Y-9843
X37402Y-12697
X37402Y-22539
X37402Y-27687
X37402Y-37530
X37402Y-68898
X37465Y-56435
X37465Y-66278
X53150Y-9843
X53150Y-68898
T2
G00X51998Y-62839
M15
G01X52431Y-62839
M16
G05
G00X51998Y-66240
M15
G01X52431Y-66240
M16
G05
G00X52096Y-36783
M15
G01X52530Y-36783
M16
G05
G00X52096Y-40185
M15
G01X52530Y-40185
M16
G05
G00X53711Y-62839
M15
G01X54026Y-62839
M16
G05
G00X53711Y-66240
M15
G01X54026Y-66240
M16
G05
G00X53809Y-36783
M15
G01X54124Y-36783
M16
G05
G00X53809Y-40185
M15
G01X54124Y-40185
M16
G05
M30
