M48
; DRILL file {KiCad 9.0.7+1} date 2026-04-02T03:58:50+0000
; FORMAT={-:-/ absolute / metric / decimal}
; #@! TF.CreationDate,2026-04-02T03:58:50+00:00
; #@! TF.GenerationSoftware,Kicad,Pcbnew,9.0.7+1
; #@! TF.FileFunction,MixedPlating,1,4
FMAT,2
METRIC
; #@! TA.AperFunction,Plated,PTH,ViaDrill
T1C0.300
; #@! TA.AperFunction,Plated,PTH,ComponentDrill
T2C0.600
; #@! TA.AperFunction,Plated,PTH,ComponentDrill
T3C0.800
; #@! TA.AperFunction,Plated,PTH,ComponentDrill
T4C0.900
; #@! TA.AperFunction,Plated,PTH,ComponentDrill
T5C1.000
; #@! TA.AperFunction,Plated,PTH,ComponentDrill
T6C1.100
; #@! TA.AperFunction,Plated,PTH,ComponentDrill
T7C1.150
; #@! TA.AperFunction,Plated,PTH,ComponentDrill
T8C3.200
; #@! TA.AperFunction,NonPlated,NPTH,ComponentDrill
T9C0.650
; #@! TA.AperFunction,NonPlated,NPTH,ComponentDrill
T10C0.991
; #@! TA.AperFunction,NonPlated,NPTH,ComponentDrill
T11C2.375
%
G90
G05
T1
X101.251Y-47.5
X103.25Y-77.25
X104.2Y-61.5
X104.75Y-56.75
X104.986Y-55.514
X105.0Y-61.5
X105.568Y-42.5
X105.568Y-43.5
X105.75Y-50.1
X105.9Y-54.5
X106.25Y-61.75
X106.25Y-69.0
X106.25Y-96.5
X106.7Y-54.5
X107.184Y-50.1
X107.2Y-42.526
X107.5Y-54.5
X107.5Y-55.75
X107.5Y-60.75
X107.5Y-91.5
X107.5Y-96.5
X107.75Y-49.5
X108.0Y-42.5
X108.1Y-57.5
X108.146Y-56.605
X108.203Y-50.203
X108.324Y-54.476
X108.75Y-75.25
X108.75Y-96.5
X109.4Y-62.651
X110.0Y-81.25
X110.0Y-96.5
X110.6Y-57.625
X111.5Y-44.0
X112.25Y-52.25
X113.75Y-46.5
X113.75Y-53.5
X115.25Y-52.25
X115.25Y-53.05
X116.25Y-49.5
X117.0Y-163.0
X117.5Y-54.0
X117.5Y-75.0
X117.5Y-76.0
X117.975Y-114.806
X118.0Y-161.5
X118.236Y-115.75
X118.236Y-116.75
X118.25Y-47.5
X119.25Y-42.5
X119.846Y-70.0
X120.0Y-21.75
X120.448Y-113.216
X120.485Y-118.512
X120.5Y-116.295
X120.6Y-114.276
X120.6Y-115.25
X120.976Y-63.891
X121.0Y-63.0
X121.499Y-118.0
X121.5Y-27.5
X121.75Y-148.5
X121.75Y-150.0
X122.25Y-109.75
X122.5Y-46.5
X122.5Y-163.18
X122.7Y-106.75
X122.7Y-118.0
X122.75Y-24.0
X122.75Y-89.25
X122.75Y-117.0
X122.9Y-127.0
X122.9Y-128.25
X123.076Y-111.424
X123.25Y-81.75
X123.25Y-84.25
X123.25Y-86.75
X123.5Y-38.75
X123.5Y-106.75
X123.5Y-118.0
X123.5Y-121.25
X124.3Y-106.75
X124.3Y-121.25
X124.451Y-59.799
X124.75Y-164.68
X125.0Y-163.75
X125.1Y-106.736
X125.25Y-63.25
X125.25Y-65.5
X125.25Y-151.0
X125.3Y-50.5
X125.3Y-55.5
X125.3Y-60.5
X125.3Y-70.5
X125.3Y-75.5
X125.9Y-106.753
X126.25Y-109.75
X126.5Y-37.0
X126.75Y-106.75
X127.0Y-33.0
X127.5Y-31.5
X127.5Y-107.028
X127.75Y-117.75
X128.25Y-106.75
X128.55Y-117.747
X128.75Y-113.25
X129.05Y-106.75
X129.25Y-118.5
X129.434Y-112.476
X129.65Y-31.5
X130.0Y-30.75
X130.0Y-32.75
X130.0Y-35.75
X130.0Y-37.0
X130.0Y-39.25
X130.0Y-40.5
X130.0Y-164.18
X130.25Y-62.75
X130.5Y-97.75
X130.905Y-160.78
X130.905Y-167.08
X130.944Y-162.28
X130.944Y-165.28
X130.981Y-94.619
X130.981Y-100.881
X131.0Y-95.5
X131.0Y-100.0
X132.0Y-92.25
X132.0Y-117.25
X132.0Y-118.5
X132.27Y-113.305
X132.3Y-112.1
X132.5Y-127.0
X132.5Y-137.25
X132.75Y-108.5
X133.0Y-147.25
X133.0Y-151.25
X133.126Y-163.466
X133.25Y-31.5
X133.25Y-60.75
X133.25Y-112.25
X134.25Y-134.25
X134.75Y-116.25
X134.75Y-140.25
X135.0Y-109.5
X135.75Y-122.75
X136.0Y-146.75
X136.0Y-150.5
X136.25Y-142.25
X136.5Y-112.757
X137.0Y-108.25
X137.079Y-113.309
X137.5Y-137.25
T3
X117.0Y-100.0
X117.0Y-103.5
T4
X108.578Y-146.327
X108.578Y-152.327
X111.078Y-146.327
X111.078Y-152.327
X113.578Y-146.327
X113.578Y-152.327
T5
X95.0Y-40.595
X95.0Y-43.365
X95.0Y-46.135
X95.0Y-48.905
X95.0Y-78.67
X95.0Y-81.44
X95.0Y-84.21
X95.0Y-86.98
X95.16Y-151.69
X95.16Y-154.46
X95.16Y-157.23
X95.16Y-160.0
X97.84Y-39.21
X97.84Y-41.98
X97.84Y-44.75
X97.84Y-47.52
X97.84Y-50.29
X97.84Y-77.285
X97.84Y-80.055
X97.84Y-82.825
X97.84Y-85.595
X97.84Y-88.365
X98.0Y-150.305
X98.0Y-153.075
X98.0Y-155.845
X98.0Y-158.615
X98.0Y-161.385
X103.5Y-157.0
X103.5Y-159.54
T6
X102.5Y-22.75
X102.5Y-27.25
X109.0Y-22.75
X109.0Y-27.25
T7
X95.0Y-104.0
X95.0Y-109.0
X95.0Y-114.0
X95.0Y-119.0
X95.0Y-129.0
X95.0Y-134.0
X100.0Y-104.0
X100.0Y-109.0
X100.0Y-114.0
X100.0Y-119.0
X100.0Y-129.0
X100.0Y-134.0
T8
X95.0Y-25.0
X95.0Y-32.25
X95.0Y-57.25
X95.0Y-70.325
X95.0Y-95.325
X95.0Y-175.0
X95.16Y-143.345
X95.16Y-168.345
X135.0Y-25.0
X135.0Y-175.0
T9
X133.145Y-161.04
X133.145Y-166.82
X133.395Y-94.86
X133.395Y-100.64
T10
X118.119Y-27.54
X119.135Y-22.46
X120.151Y-27.54
T11
X116.595Y-22.46
X116.595Y-25.635
X121.675Y-22.46
X121.675Y-25.635
T2
G00X132.075Y-159.61
M15
G01X133.175Y-159.61
M16
G05
G00X132.075Y-168.25
M15
G01X133.175Y-168.25
M16
G05
G00X132.325Y-93.43
M15
G01X133.425Y-93.43
M16
G05
G00X132.325Y-102.07
M15
G01X133.425Y-102.07
M16
G05
G00X136.425Y-159.61
M15
G01X137.225Y-159.61
M16
G05
G00X136.425Y-168.25
M15
G01X137.225Y-168.25
M16
G05
G00X136.675Y-93.43
M15
G01X137.475Y-93.43
M16
G05
G00X136.675Y-102.07
M15
G01X137.475Y-102.07
M16
G05
M30
