G04 #@! TF.GenerationSoftware,KiCad,Pcbnew,9.0.7+1*
G04 #@! TF.CreationDate,2026-03-03T15:12:46+00:00*
G04 #@! TF.ProjectId,sertest-ng,73657274-6573-4742-9d6e-672e6b696361,0.1*
G04 #@! TF.SameCoordinates,Original*
G04 #@! TF.FileFunction,Copper,L2,Inr*
G04 #@! TF.FilePolarity,Positive*
%FSLAX46Y46*%
G04 Gerber Fmt 4.6, Leading zero omitted, Abs format (unit mm)*
G04 Created by KiCad (PCBNEW 9.0.7+1) date 2026-03-03 15:12:46*
%MOMM*%
%LPD*%
G01*
G04 APERTURE LIST*
%ADD10C,0.200000*%
G04 #@! TA.AperFunction,NonConductor*
%ADD11C,0.200000*%
G04 #@! TD*
G04 #@! TA.AperFunction,ComponentPad*
%ADD12C,2.000000*%
G04 #@! TD*
G04 #@! TA.AperFunction,ComponentPad*
%ADD13C,5.500000*%
G04 #@! TD*
G04 #@! TA.AperFunction,ComponentPad*
%ADD14R,3.000000X1.500000*%
G04 #@! TD*
G04 #@! TA.AperFunction,ComponentPad*
%ADD15O,3.000000X1.500000*%
G04 #@! TD*
G04 #@! TA.AperFunction,HeatsinkPad*
%ADD16O,2.100000X1.000000*%
G04 #@! TD*
G04 #@! TA.AperFunction,HeatsinkPad*
%ADD17O,1.800000X1.000000*%
G04 #@! TD*
G04 #@! TA.AperFunction,ComponentPad*
%ADD18C,4.000000*%
G04 #@! TD*
G04 #@! TA.AperFunction,ComponentPad*
%ADD19R,1.600000X1.600000*%
G04 #@! TD*
G04 #@! TA.AperFunction,ComponentPad*
%ADD20C,1.600000*%
G04 #@! TD*
G04 #@! TA.AperFunction,ComponentPad*
%ADD21R,1.700000X1.700000*%
G04 #@! TD*
G04 #@! TA.AperFunction,ComponentPad*
%ADD22C,1.700000*%
G04 #@! TD*
G04 #@! TA.AperFunction,ComponentPad*
%ADD23R,1.800000X1.800000*%
G04 #@! TD*
G04 #@! TA.AperFunction,ComponentPad*
%ADD24C,1.800000*%
G04 #@! TD*
G04 #@! TA.AperFunction,ViaPad*
%ADD25C,0.600000*%
G04 #@! TD*
G04 #@! TA.AperFunction,Conductor*
%ADD26C,0.200000*%
G04 #@! TD*
G04 #@! TA.AperFunction,Conductor*
%ADD27C,0.500000*%
G04 #@! TD*
G04 APERTURE END LIST*
D10*
D11*
X137277457Y-156015713D02*
X137229838Y-155968094D01*
X137229838Y-155968094D02*
X137182219Y-155872856D01*
X137182219Y-155872856D02*
X137182219Y-155634761D01*
X137182219Y-155634761D02*
X137229838Y-155539523D01*
X137229838Y-155539523D02*
X137277457Y-155491904D01*
X137277457Y-155491904D02*
X137372695Y-155444285D01*
X137372695Y-155444285D02*
X137467933Y-155444285D01*
X137467933Y-155444285D02*
X137610790Y-155491904D01*
X137610790Y-155491904D02*
X138182219Y-156063332D01*
X138182219Y-156063332D02*
X138182219Y-155444285D01*
D12*
X102500000Y-22750000D03*
X109000000Y-22750000D03*
X102500000Y-27250000D03*
X109000000Y-27250000D03*
D13*
X95000000Y-25000000D03*
G04 #@! TA.AperFunction,ComponentPad*
G36*
G01*
X98750001Y-103250000D02*
X101249999Y-103250000D01*
G75*
G02*
X101500000Y-103500001I0J-250001D01*
G01*
X101500000Y-104499999D01*
G75*
G02*
X101249999Y-104750000I-250001J0D01*
G01*
X98750001Y-104750000D01*
G75*
G02*
X98500000Y-104499999I0J250001D01*
G01*
X98500000Y-103500001D01*
G75*
G02*
X98750001Y-103250000I250001J0D01*
G01*
G37*
G04 #@! TD.AperFunction*
D14*
X95000000Y-104000000D03*
D15*
X100000000Y-109000000D03*
X95000000Y-109000000D03*
X100000000Y-114000000D03*
X95000000Y-114000000D03*
X100000000Y-119000000D03*
X95000000Y-119000000D03*
D16*
X132875000Y-102070000D03*
D17*
X137075000Y-102070000D03*
D16*
X132875000Y-93430000D03*
D17*
X137075000Y-93430000D03*
D18*
X95000000Y-70325000D03*
X95000000Y-95325000D03*
D19*
X97840000Y-88365000D03*
D20*
X97840000Y-85595000D03*
X97840000Y-82825000D03*
X97840000Y-80055000D03*
X97840000Y-77285000D03*
X95000000Y-86980000D03*
X95000000Y-84210000D03*
X95000000Y-81440000D03*
X95000000Y-78670000D03*
D18*
X95160000Y-143345000D03*
X95160000Y-168345000D03*
D19*
X98000000Y-150305000D03*
D20*
X98000000Y-153075000D03*
X98000000Y-155845000D03*
X98000000Y-158615000D03*
X98000000Y-161385000D03*
X95160000Y-151690000D03*
X95160000Y-154460000D03*
X95160000Y-157230000D03*
X95160000Y-160000000D03*
D13*
X95000000Y-175000000D03*
D18*
X95000000Y-32250000D03*
X95000000Y-57250000D03*
D19*
X97840000Y-50290000D03*
D20*
X97840000Y-47520000D03*
X97840000Y-44750000D03*
X97840000Y-41980000D03*
X97840000Y-39210000D03*
X95000000Y-48905000D03*
X95000000Y-46135000D03*
X95000000Y-43365000D03*
X95000000Y-40595000D03*
D16*
X132625000Y-168250000D03*
D17*
X136825000Y-168250000D03*
D16*
X132625000Y-159610000D03*
D17*
X136825000Y-159610000D03*
D21*
X103500000Y-159540000D03*
D22*
X103500000Y-157000000D03*
D13*
X135000000Y-175000000D03*
D23*
X108577500Y-146327500D03*
D24*
X111077500Y-146327500D03*
X113577500Y-146327500D03*
X108577500Y-152327500D03*
X111077500Y-152327500D03*
X113577500Y-152327500D03*
G04 #@! TA.AperFunction,ComponentPad*
G36*
G01*
X117550000Y-104300000D02*
X116450000Y-104300000D01*
G75*
G02*
X116200000Y-104050000I0J250000D01*
G01*
X116200000Y-102950000D01*
G75*
G02*
X116450000Y-102700000I250000J0D01*
G01*
X117550000Y-102700000D01*
G75*
G02*
X117800000Y-102950000I0J-250000D01*
G01*
X117800000Y-104050000D01*
G75*
G02*
X117550000Y-104300000I-250000J0D01*
G01*
G37*
G04 #@! TD.AperFunction*
D20*
X117000000Y-100000000D03*
D13*
X135000000Y-25000000D03*
G04 #@! TA.AperFunction,ComponentPad*
G36*
G01*
X98750001Y-128250000D02*
X101249999Y-128250000D01*
G75*
G02*
X101500000Y-128500001I0J-250001D01*
G01*
X101500000Y-129499999D01*
G75*
G02*
X101249999Y-129750000I-250001J0D01*
G01*
X98750001Y-129750000D01*
G75*
G02*
X98500000Y-129499999I0J250001D01*
G01*
X98500000Y-128500001D01*
G75*
G02*
X98750001Y-128250000I250001J0D01*
G01*
G37*
G04 #@! TD.AperFunction*
D14*
X95000000Y-129000000D03*
D15*
X100000000Y-134000000D03*
X95000000Y-134000000D03*
D25*
X111500000Y-44000000D03*
X119250000Y-42500000D03*
X134250000Y-134250000D03*
X132300000Y-112100000D03*
X132750000Y-108500000D03*
X113750000Y-46500000D03*
X118250000Y-47500000D03*
X137000000Y-108250000D03*
X107500000Y-55750000D03*
X134750000Y-140250000D03*
X104750000Y-56750000D03*
X130000000Y-32750000D03*
X112250000Y-52250000D03*
X136250000Y-142250000D03*
X130000000Y-39250000D03*
X122500000Y-46500000D03*
X116250000Y-49500000D03*
X130000000Y-40500000D03*
X129250000Y-118500000D03*
X117500000Y-54000000D03*
X123500000Y-38750000D03*
X133250000Y-60750000D03*
X113750000Y-53500000D03*
X135000000Y-109500000D03*
X132000000Y-118500000D03*
X130250000Y-62750000D03*
X133250000Y-31500000D03*
X127000000Y-33000000D03*
X125000000Y-163750000D03*
X125250000Y-63250000D03*
X120448404Y-113216109D03*
X110600443Y-57625000D03*
X131000000Y-95500000D03*
X132000000Y-92250000D03*
X130500000Y-97750000D03*
X131000000Y-100000000D03*
X127500000Y-31500000D03*
X129650003Y-31500000D03*
X130000000Y-35750000D03*
X127750000Y-117750000D03*
X128549995Y-117747054D03*
X130000000Y-30750000D03*
X130000000Y-37000000D03*
X126500000Y-37000000D03*
X118235648Y-116749999D03*
X109400000Y-62651415D03*
X106699997Y-54500000D03*
X120485416Y-118512153D03*
X125299691Y-50500000D03*
X105899994Y-54500000D03*
X118235648Y-115750000D03*
X108100000Y-57500000D03*
X120499991Y-116295406D03*
X125299691Y-55500000D03*
X125299691Y-60500000D03*
X108000000Y-42500000D03*
X121498997Y-118000000D03*
X122699997Y-118000000D03*
X124450735Y-59799265D03*
X125250000Y-65500000D03*
X107200414Y-42525794D03*
X107184313Y-50100000D03*
X120975580Y-63891266D03*
X125299691Y-70500000D03*
X122750000Y-117000000D03*
X119846000Y-70000000D03*
X123500000Y-118000000D03*
X125299691Y-75500000D03*
X105750000Y-50100000D03*
X122250000Y-109750000D03*
X137500000Y-137250000D03*
X123075735Y-111424265D03*
X132500000Y-137250000D03*
X130981356Y-100880794D03*
X130981356Y-94619206D03*
X129050003Y-106750000D03*
X120000000Y-21750000D03*
X121500000Y-27500000D03*
X125899691Y-106753267D03*
X128250000Y-106750000D03*
X122750000Y-24000000D03*
X107500000Y-54500000D03*
X108750000Y-96500000D03*
X108750000Y-75250000D03*
X108324266Y-54475737D03*
X110000000Y-81250000D03*
X101251000Y-47500000D03*
X110000000Y-96500000D03*
X107500000Y-60750000D03*
X107500000Y-91500000D03*
X107500000Y-96500000D03*
X107750000Y-49500000D03*
X106250000Y-96500000D03*
X106250000Y-61750000D03*
X106250000Y-69000000D03*
X103250000Y-77250000D03*
X130904998Y-167080000D03*
X130943967Y-165280000D03*
X130943967Y-162280000D03*
X130904998Y-160780000D03*
X130000000Y-164180000D03*
X133126272Y-163465570D03*
X121750000Y-148500000D03*
X121750000Y-150000000D03*
X123250000Y-81750000D03*
X125099879Y-106735812D03*
X123250000Y-84250000D03*
X124300003Y-106750000D03*
X123250000Y-86750000D03*
X123500000Y-106750000D03*
X122699997Y-106750000D03*
X122750000Y-89250000D03*
X118000000Y-161500000D03*
X124300003Y-121250000D03*
X105000000Y-61500000D03*
X117975029Y-114806017D03*
X120600000Y-114275907D03*
X117500000Y-75000000D03*
X104199997Y-61500000D03*
X117000000Y-163000000D03*
X123500000Y-121250000D03*
X136500055Y-112757127D03*
X133250000Y-112250000D03*
X132000000Y-117250000D03*
X125250000Y-151000000D03*
X134750000Y-116250000D03*
X135750000Y-122750000D03*
X136000000Y-150500000D03*
X133000000Y-151250000D03*
X133000000Y-147250000D03*
X136000000Y-146750000D03*
X115250000Y-53050003D03*
X105568176Y-43500000D03*
X126250000Y-109750000D03*
X126750000Y-106750000D03*
X121000000Y-63000000D03*
X108203300Y-50203300D03*
X104985735Y-55514265D03*
X120600000Y-115250000D03*
X117500000Y-76000000D03*
X127500002Y-107028391D03*
X108146415Y-56605055D03*
X129420300Y-112479539D03*
X105568176Y-42500000D03*
X115250000Y-52250000D03*
X137079286Y-113308937D03*
X132269899Y-113304864D03*
X122500000Y-163180000D03*
X124750000Y-164680000D03*
D26*
X110600443Y-57625000D02*
X110600443Y-55807240D01*
X104968176Y-29718176D02*
X102500000Y-27250000D01*
X104968176Y-50174973D02*
X104968176Y-29718176D01*
X110600443Y-55807240D02*
X104968176Y-50174973D01*
D27*
X130500000Y-97750000D02*
X130500000Y-96000000D01*
X131750000Y-94199917D02*
X131374000Y-93823917D01*
X130500000Y-99500000D02*
X131000000Y-100000000D01*
X131374000Y-92876000D02*
X132000000Y-92250000D01*
X130500000Y-96000000D02*
X131000000Y-95500000D01*
X131374000Y-93823917D02*
X131374000Y-92876000D01*
X130500000Y-97750000D02*
X130500000Y-99500000D01*
X131000000Y-95500000D02*
X131162637Y-95500000D01*
X131162637Y-95500000D02*
X131750000Y-94912637D01*
X131750000Y-94912637D02*
X131750000Y-94199917D01*
D26*
X125299691Y-60500000D02*
X120446000Y-65353691D01*
X121599000Y-112498774D02*
X121599000Y-117899997D01*
X120446000Y-111345773D02*
X121599000Y-112498774D01*
X125299691Y-60500000D02*
X125299691Y-59799691D01*
X120446000Y-65353691D02*
X120446000Y-111345773D01*
X121599000Y-117899997D02*
X121498997Y-118000000D01*
X125299691Y-59799691D02*
X108000000Y-42500000D01*
X120847000Y-111179673D02*
X120847000Y-69903000D01*
X107200414Y-42525794D02*
X107200414Y-42548944D01*
X120847000Y-69903000D02*
X125250000Y-65500000D01*
X107200414Y-42548944D02*
X124450735Y-59799265D01*
X122000000Y-117300003D02*
X122000000Y-112332673D01*
X122699997Y-118000000D02*
X122000000Y-117300003D01*
X122000000Y-112332673D02*
X120847000Y-111179673D01*
X121248000Y-111013573D02*
X121248000Y-74551691D01*
X122750000Y-112515573D02*
X121248000Y-111013573D01*
X107184313Y-50100000D02*
X120975580Y-63891266D01*
X121248000Y-74551691D02*
X125299691Y-70500000D01*
X122750000Y-117000000D02*
X122750000Y-112515573D01*
X123500000Y-112698473D02*
X121649000Y-110847473D01*
X123500000Y-118000000D02*
X123500000Y-112698473D01*
X119846000Y-64196000D02*
X105750000Y-50100000D01*
X121649000Y-79150691D02*
X125299691Y-75500000D01*
X121649000Y-110847473D02*
X121649000Y-79150691D01*
X119846000Y-70000000D02*
X119846000Y-64196000D01*
X135149000Y-134899000D02*
X135149000Y-122649000D01*
X135149000Y-122649000D02*
X122250000Y-109750000D01*
X137500000Y-137250000D02*
X135149000Y-134899000D01*
X132016003Y-133728541D02*
X132983997Y-133728541D01*
X132500000Y-120848530D02*
X123075735Y-111424265D01*
X133223997Y-134088541D02*
X133223997Y-133968541D01*
X131776003Y-133488541D02*
X131776003Y-133368541D01*
X132740000Y-134328541D02*
X132983997Y-134328541D01*
X132500000Y-137250000D02*
X132500000Y-134568541D01*
X132016003Y-133128541D02*
X132260000Y-133128541D01*
X132500000Y-132888541D02*
X132500000Y-120848530D01*
X133223997Y-133968541D02*
G75*
G03*
X132983997Y-133728503I-239997J41D01*
G01*
X132500000Y-134568541D02*
G75*
G02*
X132740000Y-134328500I240000J41D01*
G01*
X131776003Y-133368541D02*
G75*
G02*
X132016003Y-133128503I239997J41D01*
G01*
X132016003Y-133728541D02*
G75*
G02*
X131775959Y-133488541I-3J240041D01*
G01*
X132983997Y-134328541D02*
G75*
G03*
X133224041Y-134088541I3J240041D01*
G01*
X132260000Y-133128541D02*
G75*
G03*
X132500041Y-132888541I0J240041D01*
G01*
X120000000Y-21750000D02*
X120728450Y-21021550D01*
X120728450Y-21021550D02*
X122270825Y-21021550D01*
X122270825Y-21021550D02*
X129050003Y-27800728D01*
X129050003Y-27800728D02*
X129050003Y-106750000D01*
X121500000Y-27500000D02*
X125899691Y-31899691D01*
X125899691Y-31899691D02*
X125899691Y-106753267D01*
X128250000Y-29500000D02*
X128250000Y-106750000D01*
X122750000Y-24000000D02*
X128250000Y-29500000D01*
X98953059Y-43789576D02*
X98864546Y-43878086D01*
X99801587Y-44638104D02*
X99713074Y-44726614D01*
X108532328Y-62331549D02*
X108532328Y-62713877D01*
X108750000Y-55750000D02*
X108750000Y-62113877D01*
X105350030Y-53850030D02*
X106899970Y-53850030D01*
X95000000Y-43365000D02*
X98012050Y-43365000D01*
X107500000Y-54500000D02*
X108750000Y-55750000D01*
X100651000Y-49151000D02*
X105350030Y-53850030D01*
X108750000Y-62931549D02*
X108750000Y-96500000D01*
X98864547Y-44217498D02*
X98949401Y-44302351D01*
X98440285Y-43453824D02*
X98528795Y-43365311D01*
X99288813Y-44302352D02*
X99377323Y-44213839D01*
X100651000Y-46003950D02*
X100651000Y-49151000D01*
X107500000Y-54450060D02*
X107500000Y-54500000D01*
X98868207Y-43365312D02*
X98953059Y-43450164D01*
X99716735Y-44213840D02*
X99801587Y-44298692D01*
X98012050Y-43365000D02*
X98100873Y-43453823D01*
X106899970Y-53850030D02*
X107500000Y-54450060D01*
X99713075Y-45066026D02*
X100651000Y-46003950D01*
X98949401Y-44302351D02*
G75*
G03*
X99288806Y-44302345I169699J169751D01*
G01*
X98864546Y-43878086D02*
G75*
G03*
X98864538Y-44217506I169754J-169714D01*
G01*
X108532328Y-62713877D02*
G75*
G03*
X108641164Y-62822772I108872J-23D01*
G01*
X98953059Y-43450164D02*
G75*
G02*
X98953089Y-43789606I-169659J-169736D01*
G01*
X108750000Y-62113877D02*
G75*
G02*
X108641164Y-62222700I-108800J-23D01*
G01*
X98528795Y-43365311D02*
G75*
G02*
X98868206Y-43365313I169705J-169689D01*
G01*
X98100873Y-43453823D02*
G75*
G03*
X98440305Y-43453845I169727J169723D01*
G01*
X99377323Y-44213839D02*
G75*
G02*
X99716706Y-44213868I169677J-169661D01*
G01*
X99801587Y-44298692D02*
G75*
G02*
X99801589Y-44638106I-169687J-169708D01*
G01*
X108641164Y-62822713D02*
G75*
G02*
X108749987Y-62931549I36J-108787D01*
G01*
X99713074Y-44726614D02*
G75*
G03*
X99713094Y-45066007I169726J-169686D01*
G01*
X108641164Y-62222713D02*
G75*
G03*
X108532413Y-62331549I36J-108787D01*
G01*
X102500047Y-49620046D02*
X102984311Y-49135781D01*
X102560049Y-48711521D02*
X103044295Y-48227274D01*
X102924276Y-50383755D02*
X103009128Y-50468607D01*
X101251000Y-47500000D02*
X101348529Y-47500000D01*
X102984311Y-49135781D02*
X102984311Y-49135782D01*
X103348540Y-50468607D02*
X103832838Y-49984308D01*
X103832838Y-49984308D02*
X103832838Y-49984309D01*
X104333973Y-49817265D02*
X104424147Y-49907439D01*
X103807960Y-48651543D02*
X103892812Y-48736395D01*
X102075783Y-49535194D02*
X102160635Y-49620046D01*
X103892812Y-49075807D02*
X103408574Y-49560046D01*
X103832838Y-49984309D02*
X103999881Y-49817263D01*
X102560048Y-48711519D02*
X102075783Y-49195783D01*
X110000000Y-96500000D02*
X110000000Y-56151471D01*
X102305492Y-48117552D02*
X102620031Y-47803010D01*
X102984311Y-49135782D02*
X103468548Y-48651542D01*
X110000000Y-56151471D02*
X108324266Y-54475737D01*
X103408574Y-49560046D02*
X103408575Y-49560046D01*
X103408575Y-49560046D02*
X102924276Y-50044344D01*
X102560049Y-48711521D02*
X102560048Y-48711519D01*
X104424146Y-50575617D02*
X108324266Y-54475737D01*
X101348529Y-47500000D02*
X101966080Y-48117551D01*
X102959443Y-47803010D02*
X103044295Y-47887862D01*
X103892812Y-48736395D02*
G75*
G02*
X103892811Y-49075806I-169712J-169705D01*
G01*
X103044295Y-47887862D02*
G75*
G02*
X103044327Y-48227306I-169695J-169738D01*
G01*
X103009128Y-50468607D02*
G75*
G03*
X103348540Y-50468607I169706J169704D01*
G01*
X103999881Y-49817263D02*
G75*
G02*
X104333947Y-49817291I167019J-167037D01*
G01*
X102924276Y-50044344D02*
G75*
G03*
X102924325Y-50383705I169724J-169656D01*
G01*
X104424147Y-50241529D02*
G75*
G03*
X104424119Y-50575643I167053J-167071D01*
G01*
X102075783Y-49195783D02*
G75*
G03*
X102075771Y-49535205I169717J-169717D01*
G01*
X102620031Y-47803010D02*
G75*
G02*
X102959443Y-47803010I169706J-169708D01*
G01*
X103468548Y-48651542D02*
G75*
G02*
X103808006Y-48651496I169752J-169758D01*
G01*
X102160635Y-49620046D02*
G75*
G03*
X102500047Y-49620046I169706J169704D01*
G01*
X104424147Y-49907439D02*
G75*
G02*
X104424163Y-50241545I-167047J-167061D01*
G01*
X101966080Y-48117551D02*
G75*
G03*
X102305505Y-48117566I169720J169751D01*
G01*
X99161613Y-46071614D02*
X99161612Y-46071612D01*
X107260000Y-61265319D02*
X107104160Y-61265319D01*
X99161613Y-46071614D02*
X99429109Y-45804117D01*
X107104160Y-61865319D02*
X107845845Y-61865319D01*
X107500000Y-60750000D02*
X107500000Y-61025319D01*
X108085845Y-62105319D02*
X108085845Y-62225319D01*
X98907056Y-45477645D02*
X99004845Y-45379853D01*
X99045110Y-46421116D02*
X99236371Y-46612377D01*
X106904150Y-63665319D02*
X108095847Y-63665319D01*
X106904150Y-64265319D02*
X107260000Y-64265319D01*
X106664155Y-62705319D02*
X106664155Y-62825319D01*
X100250000Y-47160000D02*
X100250000Y-53500000D01*
X99344257Y-45379853D02*
X99429109Y-45464705D01*
X106904155Y-62465319D02*
X107845845Y-62465319D01*
X100250000Y-53500000D02*
X107500000Y-60750000D01*
X107500000Y-64505319D02*
X107500000Y-96500000D01*
X97840000Y-44750000D02*
X98567644Y-45477644D01*
X106864160Y-61505319D02*
X106864160Y-61625319D01*
X99161612Y-46071612D02*
X99045110Y-46188113D01*
X99702376Y-46612377D02*
X100250000Y-47160000D01*
X106904155Y-63065319D02*
X108095847Y-63065319D01*
X106664150Y-63905319D02*
X106664150Y-64025319D01*
X108335847Y-63305319D02*
X108335847Y-63425319D01*
X99429109Y-45464705D02*
G75*
G02*
X99429098Y-45804106I-169709J-169695D01*
G01*
X107845845Y-61865319D02*
G75*
G02*
X108085781Y-62105319I-45J-239981D01*
G01*
X107104160Y-61265319D02*
G75*
G03*
X106864219Y-61505319I40J-239981D01*
G01*
X106864160Y-61625319D02*
G75*
G03*
X107104160Y-61865340I240040J19D01*
G01*
X108085845Y-62225319D02*
G75*
G02*
X107845845Y-62465345I-240045J19D01*
G01*
X106904155Y-62465319D02*
G75*
G03*
X106664219Y-62705319I45J-239981D01*
G01*
X99469374Y-46612377D02*
G75*
G02*
X99702376Y-46612377I116501J-116502D01*
G01*
X106904150Y-63665319D02*
G75*
G03*
X106664119Y-63905319I-50J-239981D01*
G01*
X98567644Y-45477644D02*
G75*
G03*
X98907105Y-45477695I169756J169744D01*
G01*
X99004845Y-45379853D02*
G75*
G02*
X99344257Y-45379853I169706J-169708D01*
G01*
X107500000Y-61025319D02*
G75*
G02*
X107260000Y-61265300I-240000J19D01*
G01*
X108095847Y-63065319D02*
G75*
G02*
X108335781Y-63305319I-47J-239981D01*
G01*
X99045110Y-46188113D02*
G75*
G03*
X99045124Y-46421101I116490J-116487D01*
G01*
X106664150Y-64025319D02*
G75*
G03*
X106904150Y-64265250I239950J19D01*
G01*
X106664155Y-62825319D02*
G75*
G03*
X106904155Y-63065345I240045J19D01*
G01*
X99236371Y-46612377D02*
G75*
G03*
X99469374Y-46612378I116502J116503D01*
G01*
X108335847Y-63425319D02*
G75*
G02*
X108095847Y-63665347I-240047J19D01*
G01*
X107260000Y-64265319D02*
G75*
G02*
X107499981Y-64505319I0J-239981D01*
G01*
X105659350Y-65618911D02*
X106690654Y-65618911D01*
X99750000Y-55400056D02*
X106099943Y-61750000D01*
X105659350Y-65018911D02*
X106010000Y-65018911D01*
X99750000Y-47872950D02*
X99750000Y-55400056D01*
X106250000Y-64778911D02*
X106250000Y-61750000D01*
X105419350Y-65378911D02*
X105419350Y-65258911D01*
X106930654Y-67178911D02*
X106930654Y-67058911D01*
X98012050Y-46135000D02*
X99750000Y-47872950D01*
X105659350Y-66218911D02*
X106690654Y-66218911D01*
X106250000Y-96500000D02*
X106250000Y-68258911D01*
X106099943Y-61750000D02*
X106250000Y-61750000D01*
X106010000Y-68018911D02*
X105659337Y-68018911D01*
X106930654Y-65978911D02*
X106930654Y-65858911D01*
X105419337Y-67778911D02*
X105419337Y-67658911D01*
X105659350Y-66818911D02*
X106690654Y-66818911D01*
X105659337Y-67418911D02*
X106690654Y-67418911D01*
X95000000Y-46135000D02*
X98012050Y-46135000D01*
X105419350Y-66578911D02*
X105419350Y-66458911D01*
X105419350Y-65258911D02*
G75*
G02*
X105659350Y-65018950I239950J11D01*
G01*
X106250000Y-68258911D02*
G75*
G03*
X106010000Y-68018900I-240000J11D01*
G01*
X106930654Y-67058911D02*
G75*
G03*
X106690654Y-66818946I-239954J11D01*
G01*
X105419337Y-67658911D02*
G75*
G02*
X105659337Y-67418937I239963J11D01*
G01*
X105659350Y-65618911D02*
G75*
G02*
X105419289Y-65378911I-50J240011D01*
G01*
X106690654Y-66218911D02*
G75*
G03*
X106930711Y-65978911I46J240011D01*
G01*
X105419350Y-66458911D02*
G75*
G02*
X105659350Y-66218950I239950J11D01*
G01*
X106930654Y-65858911D02*
G75*
G03*
X106690654Y-65618946I-239954J11D01*
G01*
X105659337Y-68018911D02*
G75*
G02*
X105419289Y-67778911I-37J240011D01*
G01*
X105659350Y-66818911D02*
G75*
G02*
X105419289Y-66578911I-50J240011D01*
G01*
X106690654Y-67418911D02*
G75*
G03*
X106930711Y-67178911I46J240011D01*
G01*
X106010000Y-65018911D02*
G75*
G03*
X106250011Y-64778911I0J240011D01*
G01*
X100722099Y-80563194D02*
X100581660Y-80422755D01*
X103250000Y-77250000D02*
X103250000Y-77415000D01*
X101146364Y-80478339D02*
X101061511Y-80563193D01*
X100157395Y-80507606D02*
X98210934Y-82454066D01*
X103250000Y-77415000D02*
X101430189Y-79234811D01*
X98210934Y-82454066D02*
X97840000Y-82825000D01*
X100526043Y-79518605D02*
X101146365Y-80138927D01*
X100242248Y-80422755D02*
X100157395Y-80507606D01*
X101090777Y-79234811D02*
X100950307Y-79094341D01*
X100610896Y-79094341D02*
X100526043Y-79179193D01*
X101061511Y-80563193D02*
G75*
G02*
X100722094Y-80563199I-169711J169693D01*
G01*
X100526043Y-79179193D02*
G75*
G03*
X100526042Y-79518606I169657J-169707D01*
G01*
X100581660Y-80422755D02*
G75*
G03*
X100242248Y-80422755I-169706J-169701D01*
G01*
X100950307Y-79094341D02*
G75*
G03*
X100610895Y-79094340I-169706J-169703D01*
G01*
X101146365Y-80138927D02*
G75*
G02*
X101146332Y-80478306I-169665J-169673D01*
G01*
X101430189Y-79234811D02*
G75*
G02*
X101090777Y-79234811I-169706J169704D01*
G01*
X130904998Y-167080000D02*
X130904998Y-165318969D01*
X130904998Y-165318969D02*
X130943967Y-165280000D01*
X130904998Y-162241031D02*
X130943967Y-162280000D01*
X130904998Y-160780000D02*
X130904998Y-162241031D01*
X133126272Y-163465570D02*
X130714430Y-163465570D01*
X130714430Y-163465570D02*
X130000000Y-164180000D01*
D27*
X101533442Y-152682485D02*
X101533442Y-152795000D01*
X113250000Y-148500000D02*
X111077500Y-146327500D01*
X101813442Y-153075000D02*
X104330000Y-153075000D01*
X104330000Y-153075000D02*
X111077500Y-146327500D01*
X121750000Y-148500000D02*
X113250000Y-148500000D01*
X98000000Y-153075000D02*
X100553442Y-153075000D01*
X101113442Y-152402485D02*
X101253442Y-152402485D01*
X100833442Y-152795000D02*
X100833442Y-152682485D01*
X101253442Y-152402485D02*
G75*
G02*
X101533415Y-152682485I-42J-280015D01*
G01*
X100553442Y-153075000D02*
G75*
G03*
X100833400Y-152795000I-42J280000D01*
G01*
X100833442Y-152682485D02*
G75*
G02*
X101113442Y-152402542I279958J-15D01*
G01*
X101533442Y-152795000D02*
G75*
G03*
X101813442Y-153074958I279958J0D01*
G01*
X113405000Y-150000000D02*
X111077500Y-152327500D01*
X121750000Y-150000000D02*
X113405000Y-150000000D01*
D26*
X125099879Y-83599879D02*
X123250000Y-81750000D01*
X125099879Y-106735812D02*
X125099879Y-83599879D01*
X124300003Y-106750000D02*
X124300003Y-85300003D01*
X124300003Y-85300003D02*
X123250000Y-84250000D01*
X123500000Y-87000000D02*
X123250000Y-86750000D01*
X123500000Y-106750000D02*
X123500000Y-87000000D01*
X122699997Y-106750000D02*
X122699997Y-89300003D01*
X122699997Y-89300003D02*
X122750000Y-89250000D01*
X120675687Y-158824309D02*
X120760542Y-158739457D01*
X120251425Y-159587986D02*
X120259386Y-159595947D01*
X124300003Y-155199997D02*
X124300003Y-121250000D01*
X120683649Y-159171682D02*
X120675687Y-159163720D01*
X120760542Y-158739457D02*
X124300003Y-155199997D01*
X120598797Y-159595947D02*
X120683649Y-159511094D01*
X118000000Y-161500000D02*
X119912014Y-159587986D01*
X120683649Y-159511094D02*
G75*
G03*
X120683637Y-159171694I-169749J169694D01*
G01*
X119912014Y-159587986D02*
G75*
G02*
X120251425Y-159587985I169706J-169707D01*
G01*
X120259386Y-159595947D02*
G75*
G03*
X120598797Y-159595947I169705J169707D01*
G01*
X120675687Y-159163720D02*
G75*
G02*
X120675672Y-158824295I169713J169720D01*
G01*
X120600000Y-114275907D02*
X120193007Y-114275907D01*
X118679525Y-112762425D02*
X118679525Y-76179525D01*
X118679525Y-76179525D02*
X117500000Y-75000000D01*
X120193007Y-114275907D02*
X118679525Y-112762425D01*
X123500000Y-121250000D02*
X123500000Y-155150057D01*
X117000000Y-161650057D02*
X117000000Y-163000000D01*
X123500000Y-155150057D02*
X117000000Y-161650057D01*
X136500055Y-112757127D02*
X133757127Y-112757127D01*
X133757127Y-112757127D02*
X133250000Y-112250000D01*
X135750000Y-122750000D02*
X135750000Y-117250000D01*
X135750000Y-117250000D02*
X134750000Y-116250000D01*
X133000000Y-151250000D02*
X135250000Y-151250000D01*
X135250000Y-151250000D02*
X136000000Y-150500000D01*
X135500000Y-147250000D02*
X136000000Y-146750000D01*
X133000000Y-147250000D02*
X135500000Y-147250000D01*
X115118179Y-53050003D02*
X115250000Y-53050003D01*
X105568176Y-43500000D02*
X115118179Y-53050003D01*
X108203300Y-50203300D02*
X121000000Y-63000000D01*
X118278525Y-100750000D02*
X118250000Y-100721475D01*
X118278525Y-100750000D02*
X118278525Y-112928525D01*
X118250000Y-100721475D02*
X118250000Y-76750000D01*
X120600000Y-115250000D02*
X118278525Y-112928525D01*
X118250000Y-76750000D02*
X117500000Y-76000000D01*
X105568176Y-42500000D02*
X115250000Y-52181824D01*
X115250000Y-52181824D02*
X115250000Y-52250000D01*
X132323162Y-113358127D02*
X137030096Y-113358127D01*
X132269899Y-113304864D02*
X132323162Y-113358127D01*
X137030096Y-113358127D02*
X137079286Y-113308937D01*
D27*
X124750000Y-164680000D02*
X124000000Y-164680000D01*
X124000000Y-164680000D02*
X122500000Y-163180000D01*
M02*
