G04 #@! TF.GenerationSoftware,KiCad,Pcbnew,9.0.6+1*
G04 #@! TF.CreationDate,2026-01-24T14:29:44+00:00*
G04 #@! TF.ProjectId,sertest-ng,73657274-6573-4742-9d6e-672e6b696361,0.1*
G04 #@! TF.SameCoordinates,Original*
G04 #@! TF.FileFunction,Copper,L2,Inr*
G04 #@! TF.FilePolarity,Positive*
%FSLAX46Y46*%
G04 Gerber Fmt 4.6, Leading zero omitted, Abs format (unit mm)*
G04 Created by KiCad (PCBNEW 9.0.6+1) date 2026-01-24 14:29:44*
%MOMM*%
%LPD*%
G01*
G04 APERTURE LIST*
%ADD10C,0.200000*%
G04 #@! TA.AperFunction,NonConductor*
%ADD11C,0.200000*%
G04 #@! TD*
G04 #@! TA.AperFunction,ComponentPad*
%ADD12C,2.000000*%
G04 #@! TD*
G04 #@! TA.AperFunction,ComponentPad*
%ADD13C,5.500000*%
G04 #@! TD*
G04 #@! TA.AperFunction,ComponentPad*
%ADD14R,3.000000X1.500000*%
G04 #@! TD*
G04 #@! TA.AperFunction,ComponentPad*
%ADD15O,3.000000X1.500000*%
G04 #@! TD*
G04 #@! TA.AperFunction,HeatsinkPad*
%ADD16O,2.100000X1.000000*%
G04 #@! TD*
G04 #@! TA.AperFunction,HeatsinkPad*
%ADD17O,1.800000X1.000000*%
G04 #@! TD*
G04 #@! TA.AperFunction,ComponentPad*
%ADD18C,4.000000*%
G04 #@! TD*
G04 #@! TA.AperFunction,ComponentPad*
%ADD19R,1.600000X1.600000*%
G04 #@! TD*
G04 #@! TA.AperFunction,ComponentPad*
%ADD20C,1.600000*%
G04 #@! TD*
G04 #@! TA.AperFunction,ComponentPad*
%ADD21R,1.700000X1.700000*%
G04 #@! TD*
G04 #@! TA.AperFunction,ComponentPad*
%ADD22C,1.700000*%
G04 #@! TD*
G04 #@! TA.AperFunction,ComponentPad*
%ADD23R,1.800000X1.800000*%
G04 #@! TD*
G04 #@! TA.AperFunction,ComponentPad*
%ADD24C,1.800000*%
G04 #@! TD*
G04 #@! TA.AperFunction,ViaPad*
%ADD25C,0.600000*%
G04 #@! TD*
G04 #@! TA.AperFunction,Conductor*
%ADD26C,0.200000*%
G04 #@! TD*
G04 #@! TA.AperFunction,Conductor*
%ADD27C,0.500000*%
G04 #@! TD*
G04 APERTURE END LIST*
D10*
D11*
X137277457Y-156015713D02*
X137229838Y-155968094D01*
X137229838Y-155968094D02*
X137182219Y-155872856D01*
X137182219Y-155872856D02*
X137182219Y-155634761D01*
X137182219Y-155634761D02*
X137229838Y-155539523D01*
X137229838Y-155539523D02*
X137277457Y-155491904D01*
X137277457Y-155491904D02*
X137372695Y-155444285D01*
X137372695Y-155444285D02*
X137467933Y-155444285D01*
X137467933Y-155444285D02*
X137610790Y-155491904D01*
X137610790Y-155491904D02*
X138182219Y-156063332D01*
X138182219Y-156063332D02*
X138182219Y-155444285D01*
D12*
X102500000Y-22750000D03*
X109000000Y-22750000D03*
X102500000Y-27250000D03*
X109000000Y-27250000D03*
D13*
X95000000Y-25000000D03*
G04 #@! TA.AperFunction,ComponentPad*
G36*
G01*
X98750001Y-103250000D02*
X101249999Y-103250000D01*
G75*
G02*
X101500000Y-103500001I0J-250001D01*
G01*
X101500000Y-104499999D01*
G75*
G02*
X101249999Y-104750000I-250001J0D01*
G01*
X98750001Y-104750000D01*
G75*
G02*
X98500000Y-104499999I0J250001D01*
G01*
X98500000Y-103500001D01*
G75*
G02*
X98750001Y-103250000I250001J0D01*
G01*
G37*
G04 #@! TD.AperFunction*
D14*
X95000000Y-104000000D03*
D15*
X100000000Y-109000000D03*
X95000000Y-109000000D03*
X100000000Y-114000000D03*
X95000000Y-114000000D03*
X100000000Y-119000000D03*
X95000000Y-119000000D03*
D16*
X132875000Y-102070000D03*
D17*
X137075000Y-102070000D03*
D16*
X132875000Y-93430000D03*
D17*
X137075000Y-93430000D03*
D18*
X95000000Y-70325000D03*
X95000000Y-95325000D03*
D19*
X97840000Y-88365000D03*
D20*
X97840000Y-85595000D03*
X97840000Y-82825000D03*
X97840000Y-80055000D03*
X97840000Y-77285000D03*
X95000000Y-86980000D03*
X95000000Y-84210000D03*
X95000000Y-81440000D03*
X95000000Y-78670000D03*
D18*
X95160000Y-143345000D03*
X95160000Y-168345000D03*
D19*
X98000000Y-150305000D03*
D20*
X98000000Y-153075000D03*
X98000000Y-155845000D03*
X98000000Y-158615000D03*
X98000000Y-161385000D03*
X95160000Y-151690000D03*
X95160000Y-154460000D03*
X95160000Y-157230000D03*
X95160000Y-160000000D03*
D13*
X95000000Y-175000000D03*
D18*
X95000000Y-32250000D03*
X95000000Y-57250000D03*
D19*
X97840000Y-50290000D03*
D20*
X97840000Y-47520000D03*
X97840000Y-44750000D03*
X97840000Y-41980000D03*
X97840000Y-39210000D03*
X95000000Y-48905000D03*
X95000000Y-46135000D03*
X95000000Y-43365000D03*
X95000000Y-40595000D03*
D16*
X132625000Y-168250000D03*
D17*
X136825000Y-168250000D03*
D16*
X132625000Y-159610000D03*
D17*
X136825000Y-159610000D03*
D21*
X103500000Y-159540000D03*
D22*
X103500000Y-157000000D03*
D13*
X135000000Y-175000000D03*
D23*
X108577500Y-146327500D03*
D24*
X111077500Y-146327500D03*
X113577500Y-146327500D03*
X108577500Y-152327500D03*
X111077500Y-152327500D03*
X113577500Y-152327500D03*
G04 #@! TA.AperFunction,ComponentPad*
G36*
G01*
X117550000Y-104300000D02*
X116450000Y-104300000D01*
G75*
G02*
X116200000Y-104050000I0J250000D01*
G01*
X116200000Y-102950000D01*
G75*
G02*
X116450000Y-102700000I250000J0D01*
G01*
X117550000Y-102700000D01*
G75*
G02*
X117800000Y-102950000I0J-250000D01*
G01*
X117800000Y-104050000D01*
G75*
G02*
X117550000Y-104300000I-250000J0D01*
G01*
G37*
G04 #@! TD.AperFunction*
D20*
X117000000Y-100000000D03*
D13*
X135000000Y-25000000D03*
G04 #@! TA.AperFunction,ComponentPad*
G36*
G01*
X98750001Y-128250000D02*
X101249999Y-128250000D01*
G75*
G02*
X101500000Y-128500001I0J-250001D01*
G01*
X101500000Y-129499999D01*
G75*
G02*
X101249999Y-129750000I-250001J0D01*
G01*
X98750001Y-129750000D01*
G75*
G02*
X98500000Y-129499999I0J250001D01*
G01*
X98500000Y-128500001D01*
G75*
G02*
X98750001Y-128250000I250001J0D01*
G01*
G37*
G04 #@! TD.AperFunction*
D14*
X95000000Y-129000000D03*
D15*
X100000000Y-134000000D03*
X95000000Y-134000000D03*
D25*
X132300000Y-112100000D03*
X132750000Y-108500000D03*
X113750000Y-46500000D03*
X118250000Y-47500000D03*
X137000000Y-108250000D03*
X107500000Y-55750000D03*
X104750000Y-56750000D03*
X112250000Y-52250000D03*
X122500000Y-46500000D03*
X116250000Y-49500000D03*
X129250000Y-118500000D03*
X117500000Y-54000000D03*
X113750000Y-53500000D03*
X135000000Y-109500000D03*
X132000000Y-118500000D03*
X125000000Y-163750000D03*
X120448404Y-113216109D03*
X110600443Y-57625000D03*
X131000000Y-95500000D03*
X132000000Y-92250000D03*
X130500000Y-97750000D03*
X131000000Y-100000000D03*
X130000000Y-35750000D03*
X127750000Y-117750000D03*
X128549995Y-117747054D03*
X130000000Y-30750000D03*
X118235648Y-116749999D03*
X109400000Y-62651415D03*
X106699997Y-54500000D03*
X120485416Y-118512153D03*
X125299691Y-50500000D03*
X105899994Y-54500000D03*
X118235648Y-115750000D03*
X108100000Y-57500000D03*
X120499991Y-116295406D03*
X125299691Y-55500000D03*
X125299691Y-60500000D03*
X108000000Y-42500000D03*
X121498997Y-118000000D03*
X122699997Y-118000000D03*
X124450735Y-59799265D03*
X125250000Y-65500000D03*
X107200414Y-42525794D03*
X107184313Y-50100000D03*
X120975580Y-63891266D03*
X125299691Y-70500000D03*
X122750000Y-117000000D03*
X119846000Y-70000000D03*
X123500000Y-118000000D03*
X125299691Y-75500000D03*
X105750000Y-50100000D03*
X122250000Y-109750000D03*
X137500000Y-137250000D03*
X123075735Y-111424265D03*
X132500000Y-137250000D03*
X130981356Y-100880794D03*
X130981356Y-94619206D03*
X129050003Y-106750000D03*
X120000000Y-21750000D03*
X121500000Y-27500000D03*
X125899691Y-106753267D03*
X128250000Y-106750000D03*
X122750000Y-24000000D03*
X107500000Y-54500000D03*
X108750000Y-96500000D03*
X108750000Y-80500000D03*
X108324266Y-54475737D03*
X110000000Y-86750000D03*
X110000000Y-96500000D03*
X107500000Y-60750000D03*
X107500000Y-96500000D03*
X107750000Y-49500000D03*
X106250000Y-96500000D03*
X106250000Y-61750000D03*
X106250000Y-74250000D03*
X130904998Y-167080000D03*
X130943967Y-165280000D03*
X130943967Y-162280000D03*
X130904998Y-160780000D03*
X130000000Y-164180000D03*
X133126272Y-163465570D03*
X121750000Y-148500000D03*
X121750000Y-150000000D03*
X123250000Y-81750000D03*
X125099879Y-106735812D03*
X123250000Y-84250000D03*
X124300003Y-106750000D03*
X123250000Y-86750000D03*
X123500000Y-106750000D03*
X122699997Y-106750000D03*
X122750000Y-89250000D03*
X124300003Y-121250000D03*
X117000000Y-163000000D03*
X105000000Y-61500000D03*
X117975029Y-114806017D03*
X120600000Y-114275907D03*
X117500000Y-75000000D03*
X104199997Y-61500000D03*
X123500000Y-121250000D03*
X117000000Y-161750000D03*
X136500055Y-112757127D03*
X133250000Y-112250000D03*
X132000000Y-117250000D03*
X125250000Y-151000000D03*
X134750000Y-116250000D03*
X135750000Y-122750000D03*
X136000000Y-150500000D03*
X133000000Y-151250000D03*
X133000000Y-147250000D03*
X136000000Y-146750000D03*
X115250000Y-53050003D03*
X105568176Y-43500000D03*
X126250000Y-109750000D03*
X126750000Y-106750000D03*
X121000000Y-63000000D03*
X108203300Y-50203300D03*
X104985735Y-55514265D03*
X120600000Y-115250000D03*
X117500000Y-76000000D03*
X127500002Y-107028391D03*
X108146415Y-56605055D03*
X129420300Y-112479539D03*
X105568176Y-42500000D03*
X115250000Y-52250000D03*
X137079286Y-113308937D03*
X132269899Y-113304864D03*
X122500000Y-163180000D03*
X124750000Y-164680000D03*
D26*
X110600443Y-57625000D02*
X110600443Y-55807240D01*
X104968176Y-29718176D02*
X102500000Y-27250000D01*
X104968176Y-50174973D02*
X104968176Y-29718176D01*
X110600443Y-55807240D02*
X104968176Y-50174973D01*
D27*
X130500000Y-97750000D02*
X130500000Y-96000000D01*
X131750000Y-94199917D02*
X131374000Y-93823917D01*
X130500000Y-99500000D02*
X131000000Y-100000000D01*
X131374000Y-92876000D02*
X132000000Y-92250000D01*
X130500000Y-96000000D02*
X131000000Y-95500000D01*
X131374000Y-93823917D02*
X131374000Y-92876000D01*
X130500000Y-97750000D02*
X130500000Y-99500000D01*
X131000000Y-95500000D02*
X131162637Y-95500000D01*
X131162637Y-95500000D02*
X131750000Y-94912637D01*
X131750000Y-94912637D02*
X131750000Y-94199917D01*
D26*
X125299691Y-60500000D02*
X120446000Y-65353691D01*
X121599000Y-112498774D02*
X121599000Y-117899997D01*
X120446000Y-111345773D02*
X121599000Y-112498774D01*
X125299691Y-60500000D02*
X125299691Y-59799691D01*
X120446000Y-65353691D02*
X120446000Y-111345773D01*
X121599000Y-117899997D02*
X121498997Y-118000000D01*
X125299691Y-59799691D02*
X108000000Y-42500000D01*
X120847000Y-111179673D02*
X120847000Y-69903000D01*
X107200414Y-42525794D02*
X107200414Y-42548944D01*
X120847000Y-69903000D02*
X125250000Y-65500000D01*
X107200414Y-42548944D02*
X124450735Y-59799265D01*
X122000000Y-117300003D02*
X122000000Y-112332673D01*
X122699997Y-118000000D02*
X122000000Y-117300003D01*
X122000000Y-112332673D02*
X120847000Y-111179673D01*
X121248000Y-111013573D02*
X121248000Y-74551691D01*
X122750000Y-112515573D02*
X121248000Y-111013573D01*
X107184313Y-50100000D02*
X120975580Y-63891266D01*
X121248000Y-74551691D02*
X125299691Y-70500000D01*
X122750000Y-117000000D02*
X122750000Y-112515573D01*
X123500000Y-112698473D02*
X121649000Y-110847473D01*
X123500000Y-118000000D02*
X123500000Y-112698473D01*
X119846000Y-64196000D02*
X105750000Y-50100000D01*
X121649000Y-79150691D02*
X125299691Y-75500000D01*
X121649000Y-110847473D02*
X121649000Y-79150691D01*
X119846000Y-70000000D02*
X119846000Y-64196000D01*
X135149000Y-134899000D02*
X135149000Y-122649000D01*
X135149000Y-122649000D02*
X122250000Y-109750000D01*
X137500000Y-137250000D02*
X135149000Y-134899000D01*
X132016003Y-133728541D02*
X132983997Y-133728541D01*
X132500000Y-120848530D02*
X123075735Y-111424265D01*
X133223997Y-134088541D02*
X133223997Y-133968541D01*
X131776003Y-133488541D02*
X131776003Y-133368541D01*
X132740000Y-134328541D02*
X132983997Y-134328541D01*
X132500000Y-137250000D02*
X132500000Y-134568541D01*
X132016003Y-133128541D02*
X132260000Y-133128541D01*
X132500000Y-132888541D02*
X132500000Y-120848530D01*
X133223997Y-133968541D02*
G75*
G03*
X132983997Y-133728503I-239997J41D01*
G01*
X132500000Y-134568541D02*
G75*
G02*
X132740000Y-134328500I240000J41D01*
G01*
X131776003Y-133368541D02*
G75*
G02*
X132016003Y-133128503I239997J41D01*
G01*
X132016003Y-133728541D02*
G75*
G02*
X131775959Y-133488541I-3J240041D01*
G01*
X132983997Y-134328541D02*
G75*
G03*
X133224041Y-134088541I3J240041D01*
G01*
X132260000Y-133128541D02*
G75*
G03*
X132500041Y-132888541I0J240041D01*
G01*
X120000000Y-21750000D02*
X120728450Y-21021550D01*
X120728450Y-21021550D02*
X122270825Y-21021550D01*
X122270825Y-21021550D02*
X129050003Y-27800728D01*
X129050003Y-27800728D02*
X129050003Y-106750000D01*
X125899691Y-31899691D02*
X125899691Y-106753267D01*
X121500000Y-27500000D02*
X125899691Y-31899691D01*
X128250000Y-29500000D02*
X128250000Y-106750000D01*
X122750000Y-24000000D02*
X128250000Y-29500000D01*
X102440117Y-49390176D02*
X102440117Y-49390177D01*
X101167328Y-48117388D02*
X100847410Y-48437305D01*
X99184940Y-46135000D02*
X100601644Y-47551704D01*
X103288643Y-50238702D02*
X103288643Y-50238703D01*
X108750000Y-66300957D02*
X108750000Y-55750000D01*
X102854167Y-49252159D02*
X103002397Y-49400389D01*
X101591591Y-48541650D02*
X101591591Y-48541651D01*
X101167327Y-48117387D02*
X101167328Y-48117388D01*
X103288643Y-50238703D02*
X103426109Y-50101234D01*
X101304744Y-47979973D02*
X101167327Y-48117387D01*
X103701045Y-50101236D02*
X103850374Y-50250565D01*
X102864380Y-49814441D02*
X102864380Y-49814440D01*
X103850373Y-50800433D02*
X107500000Y-54450060D01*
X102153850Y-48827921D02*
X102015854Y-48965914D01*
X107500000Y-54450060D02*
X107500000Y-54500000D01*
X101591591Y-48541651D02*
X101729584Y-48403655D01*
X102120200Y-49710094D02*
X102440117Y-49390176D01*
X102864380Y-49814440D02*
X102332374Y-50346445D01*
X101695936Y-49625242D02*
X101780788Y-49710094D01*
X102015854Y-48965914D02*
X101695936Y-49285831D01*
X95000000Y-46135000D02*
X99184940Y-46135000D01*
X102005574Y-48403657D02*
X102153850Y-48551933D01*
X102756638Y-50770708D02*
X103288643Y-50238702D01*
X101151306Y-47551704D02*
X101304743Y-47705141D01*
X108750000Y-80500000D02*
X108750000Y-67118751D01*
X108750000Y-96500000D02*
X108750000Y-80500000D01*
X103002397Y-49676423D02*
X102864380Y-49814441D01*
X108750000Y-55750000D02*
X107500000Y-54500000D01*
X101271674Y-48861568D02*
X101591591Y-48541650D01*
X102332374Y-50685856D02*
X102417226Y-50770708D01*
X100847410Y-48776716D02*
X100932262Y-48861568D01*
X102440117Y-49390177D02*
X102578133Y-49252158D01*
X108967794Y-66900957D02*
X108967794Y-66518751D01*
X102332374Y-50346445D02*
G75*
G03*
X102332324Y-50685905I169726J-169755D01*
G01*
X101729584Y-48403655D02*
G75*
G02*
X102005596Y-48403635I138016J-138045D01*
G01*
X103850374Y-50250565D02*
G75*
G02*
X103850342Y-50525467I-137474J-137435D01*
G01*
X103426109Y-50101234D02*
G75*
G02*
X103701069Y-50101212I137491J-137466D01*
G01*
X100932262Y-48861568D02*
G75*
G03*
X101271674Y-48861568I169706J169704D01*
G01*
X102153850Y-48551933D02*
G75*
G02*
X102153823Y-48827894I-137950J-137967D01*
G01*
X101695936Y-49285831D02*
G75*
G03*
X101695972Y-49625205I169664J-169669D01*
G01*
X108858897Y-66409854D02*
G75*
G02*
X108750046Y-66300957I3J108854D01*
G01*
X100847410Y-48437305D02*
G75*
G03*
X100847420Y-48776705I169690J-169695D01*
G01*
X102578133Y-49252158D02*
G75*
G02*
X102854117Y-49252208I137967J-138042D01*
G01*
X103002397Y-49400389D02*
G75*
G02*
X103002391Y-49676417I-137997J-138011D01*
G01*
X103850373Y-50525499D02*
G75*
G03*
X103850339Y-50800467I137427J-137501D01*
G01*
X108967794Y-66518751D02*
G75*
G03*
X108858897Y-66409906I-108894J-49D01*
G01*
X108750000Y-67118751D02*
G75*
G02*
X108858897Y-67009900I108900J-49D01*
G01*
X100601644Y-47551704D02*
G75*
G03*
X100876515Y-47551745I137456J137404D01*
G01*
X108858897Y-67009854D02*
G75*
G03*
X108967754Y-66900957I3J108854D01*
G01*
X102417226Y-50770708D02*
G75*
G03*
X102756638Y-50770708I169706J169704D01*
G01*
X100876476Y-47551705D02*
G75*
G02*
X101151315Y-47551695I137424J-137395D01*
G01*
X101780788Y-49710094D02*
G75*
G03*
X102120200Y-49710094I169706J169704D01*
G01*
X101304743Y-47705141D02*
G75*
G02*
X101304787Y-47980015I-137443J-137459D01*
G01*
X102069880Y-47509099D02*
X102375943Y-47203033D01*
X100627384Y-46406015D02*
X101103110Y-45930288D01*
X102800207Y-47627297D02*
X102494143Y-47933362D01*
X103766936Y-49206155D02*
X104072947Y-48900141D01*
X101221350Y-46660569D02*
X101527397Y-46354522D01*
X101951663Y-46778788D02*
X101645614Y-47084834D01*
X98971370Y-44750000D02*
X100033415Y-45812045D01*
X100372827Y-45812046D02*
X100678846Y-45506024D01*
X100627384Y-46406015D02*
X100627383Y-46406013D01*
X103563892Y-48051553D02*
X103648744Y-48136405D01*
X100627383Y-46406013D02*
X100525184Y-46508211D01*
X108324266Y-54102896D02*
X108324266Y-54475737D01*
X101645615Y-47424246D02*
X101730468Y-47509098D01*
X104497211Y-49324406D02*
X104191197Y-49630417D01*
X97840000Y-44750000D02*
X98971370Y-44750000D01*
X100949448Y-46932475D02*
X101221350Y-46660569D01*
X103342670Y-49121301D02*
X103427524Y-49206154D01*
X100525184Y-46712609D02*
X100745050Y-46932475D01*
X110000000Y-96500000D02*
X110000000Y-86750000D01*
X101866811Y-46354524D02*
X101951663Y-46439376D01*
X101018258Y-45506024D02*
X101103110Y-45590876D01*
X102918408Y-48357627D02*
X103224480Y-48051552D01*
X110000000Y-86750000D02*
X110000000Y-56151471D01*
X110000000Y-56151471D02*
X108324266Y-54475737D01*
X102715355Y-47203033D02*
X102800207Y-47287885D01*
X104191198Y-49969829D02*
X108324266Y-54102896D01*
X103648744Y-48475817D02*
X103342669Y-48781889D01*
X104412359Y-48900142D02*
X104497211Y-48984994D01*
X102494143Y-48272774D02*
X102578996Y-48357626D01*
X104191197Y-49630417D02*
G75*
G03*
X104191220Y-49969806I169703J-169683D01*
G01*
X103342669Y-48781889D02*
G75*
G03*
X103342664Y-49121306I169731J-169711D01*
G01*
X101527397Y-46354522D02*
G75*
G02*
X101866808Y-46354527I169703J-169678D01*
G01*
X103224480Y-48051552D02*
G75*
G02*
X103563906Y-48051538I169720J-169748D01*
G01*
X100525184Y-46508211D02*
G75*
G03*
X100525194Y-46712599I102216J-102189D01*
G01*
X103648744Y-48136405D02*
G75*
G02*
X103648733Y-48475806I-169744J-169695D01*
G01*
X101951663Y-46439376D02*
G75*
G02*
X101951681Y-46778806I-169663J-169724D01*
G01*
X100678846Y-45506024D02*
G75*
G02*
X101018258Y-45506024I169706J-169708D01*
G01*
X102800207Y-47287885D02*
G75*
G02*
X102800216Y-47627306I-169707J-169715D01*
G01*
X100033415Y-45812045D02*
G75*
G03*
X100372806Y-45812025I169685J169745D01*
G01*
X101645614Y-47084834D02*
G75*
G03*
X101645654Y-47424206I169686J-169666D01*
G01*
X100745050Y-46932475D02*
G75*
G03*
X100949448Y-46932475I102199J102200D01*
G01*
X102578996Y-48357626D02*
G75*
G03*
X102918406Y-48357624I169704J169726D01*
G01*
X102375943Y-47203033D02*
G75*
G02*
X102715355Y-47203033I169706J-169708D01*
G01*
X103427524Y-49206154D02*
G75*
G03*
X103766906Y-49206125I169676J169754D01*
G01*
X101103110Y-45590876D02*
G75*
G02*
X101103128Y-45930306I-169710J-169724D01*
G01*
X104497211Y-48984994D02*
G75*
G02*
X104497211Y-49324406I-169711J-169706D01*
G01*
X101730468Y-47509098D02*
G75*
G03*
X102069905Y-47509125I169732J169698D01*
G01*
X102494143Y-47933362D02*
G75*
G03*
X102494111Y-48272806I169657J-169738D01*
G01*
X104072947Y-48900141D02*
G75*
G02*
X104412406Y-48900094I169753J-169759D01*
G01*
X99571005Y-49251005D02*
X99981868Y-48840139D01*
X97840000Y-47520000D02*
X98977037Y-48657037D01*
X99995269Y-49675269D02*
X99584393Y-50086144D01*
X99571005Y-49251004D02*
X99571005Y-49251005D01*
X99995268Y-49675269D02*
X99995269Y-49675269D01*
X101169768Y-49688706D02*
X101254620Y-49773558D01*
X101254620Y-50112970D02*
X100843795Y-50523796D01*
X107500000Y-96500000D02*
X107500000Y-65138473D01*
X100432947Y-51274055D02*
X100517799Y-51358907D01*
X107500000Y-64293251D02*
X107500000Y-60750000D01*
X100008657Y-50510407D02*
X100419532Y-50099531D01*
X99484195Y-49337815D02*
X99571005Y-49251004D01*
X101437764Y-51117764D02*
X107500000Y-57180000D01*
X100419532Y-50099532D02*
X100830356Y-49688705D01*
X100857211Y-51358907D02*
X101098353Y-51117764D01*
X100406132Y-49264404D02*
X99995268Y-49675269D01*
X100419532Y-50099531D02*
X100419532Y-50099532D01*
X107500000Y-57180000D02*
X107500000Y-60750000D01*
X98977037Y-49004277D02*
X99310575Y-49337815D01*
X107254778Y-64893251D02*
X107254778Y-64538473D01*
X100843795Y-50523796D02*
X100843796Y-50523796D01*
X99584393Y-50425555D02*
X99669245Y-50510407D01*
X100321280Y-48840140D02*
X100406132Y-48924992D01*
X100432947Y-50934644D02*
X100843796Y-50523796D01*
X98977037Y-48657037D02*
G75*
G02*
X98976990Y-48830610I-86837J-86763D01*
G01*
X98977037Y-48830657D02*
G75*
G03*
X98977004Y-49004310I86763J-86843D01*
G01*
X107254778Y-64538473D02*
G75*
G02*
X107377389Y-64415878I122622J-27D01*
G01*
X107377389Y-64415862D02*
G75*
G03*
X107499962Y-64293251I11J122562D01*
G01*
X99584393Y-50086144D02*
G75*
G03*
X99584442Y-50425505I169707J-169656D01*
G01*
X101098353Y-51117764D02*
G75*
G02*
X101437764Y-51117763I169706J-169707D01*
G01*
X107377389Y-65015862D02*
G75*
G02*
X107254838Y-64893251I11J122562D01*
G01*
X99669245Y-50510407D02*
G75*
G03*
X100008657Y-50510407I169706J169704D01*
G01*
X100517799Y-51358907D02*
G75*
G03*
X100857211Y-51358907I169706J169704D01*
G01*
X100830356Y-49688705D02*
G75*
G02*
X101169806Y-49688667I169744J-169695D01*
G01*
X99310575Y-49337815D02*
G75*
G03*
X99484195Y-49337815I86810J86810D01*
G01*
X100432947Y-50934644D02*
G75*
G03*
X100432996Y-51274006I169753J-169656D01*
G01*
X100406132Y-48924992D02*
G75*
G02*
X100406134Y-49264406I-169732J-169708D01*
G01*
X107500000Y-65138473D02*
G75*
G03*
X107377389Y-65015900I-122600J-27D01*
G01*
X101254620Y-49773558D02*
G75*
G02*
X101254656Y-50113006I-169720J-169742D01*
G01*
X99981868Y-48840139D02*
G75*
G02*
X100321307Y-48840113I169732J-169661D01*
G01*
X105659350Y-65618911D02*
X106690654Y-65618911D01*
X93899000Y-44466000D02*
X93899000Y-49399000D01*
X105659350Y-65018911D02*
X106010000Y-65018911D01*
X106250000Y-96500000D02*
X106250000Y-74250000D01*
X106250000Y-64778911D02*
X106250000Y-61750000D01*
X105419350Y-65378911D02*
X105419350Y-65258911D01*
X106930654Y-67178911D02*
X106930654Y-67058911D01*
X105659350Y-66218911D02*
X106690654Y-66218911D01*
X106250000Y-74250000D02*
X106250000Y-68258911D01*
X93899000Y-49399000D02*
X106250000Y-61750000D01*
X106010000Y-68018911D02*
X105659337Y-68018911D01*
X106930654Y-65978911D02*
X106930654Y-65858911D01*
X105419337Y-67778911D02*
X105419337Y-67658911D01*
X105659350Y-66818911D02*
X106690654Y-66818911D01*
X105659337Y-67418911D02*
X106690654Y-67418911D01*
X95000000Y-43365000D02*
X93899000Y-44466000D01*
X105419350Y-66578911D02*
X105419350Y-66458911D01*
X105419350Y-65258911D02*
G75*
G02*
X105659350Y-65018950I239950J11D01*
G01*
X106250000Y-68258911D02*
G75*
G03*
X106010000Y-68018900I-240000J11D01*
G01*
X106930654Y-67058911D02*
G75*
G03*
X106690654Y-66818946I-239954J11D01*
G01*
X105419337Y-67658911D02*
G75*
G02*
X105659337Y-67418937I239963J11D01*
G01*
X105659350Y-65618911D02*
G75*
G02*
X105419289Y-65378911I-50J240011D01*
G01*
X106690654Y-66218911D02*
G75*
G03*
X106930711Y-65978911I46J240011D01*
G01*
X105419350Y-66458911D02*
G75*
G02*
X105659350Y-66218950I239950J11D01*
G01*
X106930654Y-65858911D02*
G75*
G03*
X106690654Y-65618946I-239954J11D01*
G01*
X105659337Y-68018911D02*
G75*
G02*
X105419289Y-67778911I-37J240011D01*
G01*
X105659350Y-66818911D02*
G75*
G02*
X105419289Y-66578911I-50J240011D01*
G01*
X106690654Y-67418911D02*
G75*
G03*
X106930711Y-67178911I46J240011D01*
G01*
X106010000Y-65018911D02*
G75*
G03*
X106250011Y-64778911I0J240011D01*
G01*
X130904998Y-167080000D02*
X130904998Y-165318969D01*
X130904998Y-165318969D02*
X130943967Y-165280000D01*
X130904998Y-162241031D02*
X130943967Y-162280000D01*
X130904998Y-160780000D02*
X130904998Y-162241031D01*
X133126272Y-163465570D02*
X130714430Y-163465570D01*
X130714430Y-163465570D02*
X130000000Y-164180000D01*
D27*
X101533442Y-152682485D02*
X101533442Y-152795000D01*
X113250000Y-148500000D02*
X111077500Y-146327500D01*
X101813442Y-153075000D02*
X104330000Y-153075000D01*
X104330000Y-153075000D02*
X111077500Y-146327500D01*
X121750000Y-148500000D02*
X113250000Y-148500000D01*
X98000000Y-153075000D02*
X100553442Y-153075000D01*
X101113442Y-152402485D02*
X101253442Y-152402485D01*
X100833442Y-152795000D02*
X100833442Y-152682485D01*
X101253442Y-152402485D02*
G75*
G02*
X101533415Y-152682485I-42J-280015D01*
G01*
X100553442Y-153075000D02*
G75*
G03*
X100833400Y-152795000I-42J280000D01*
G01*
X100833442Y-152682485D02*
G75*
G02*
X101113442Y-152402542I279958J-15D01*
G01*
X101533442Y-152795000D02*
G75*
G03*
X101813442Y-153074958I279958J0D01*
G01*
X113405000Y-150000000D02*
X111077500Y-152327500D01*
X121750000Y-150000000D02*
X113405000Y-150000000D01*
D26*
X125099879Y-83599879D02*
X123250000Y-81750000D01*
X125099879Y-106735812D02*
X125099879Y-83599879D01*
X124300003Y-106750000D02*
X124300003Y-85300003D01*
X124300003Y-85300003D02*
X123250000Y-84250000D01*
X123500000Y-87000000D02*
X123250000Y-86750000D01*
X123500000Y-106750000D02*
X123500000Y-87000000D01*
X122699997Y-106750000D02*
X122699997Y-89300003D01*
X122699997Y-89300003D02*
X122750000Y-89250000D01*
X124300003Y-121250000D02*
X124300003Y-155699997D01*
X124300003Y-155699997D02*
X117000000Y-163000000D01*
X120600000Y-114275907D02*
X120193007Y-114275907D01*
X118679525Y-112762425D02*
X118679525Y-76179525D01*
X118679525Y-76179525D02*
X117500000Y-75000000D01*
X120193007Y-114275907D02*
X118679525Y-112762425D01*
X123500000Y-155250000D02*
X123500000Y-121250000D01*
X117947964Y-160462625D02*
X117611361Y-160126022D01*
X117611360Y-159786612D02*
X117696215Y-159701758D01*
X118035625Y-159701759D02*
X118372229Y-160038363D01*
X117000000Y-161750000D02*
X117947963Y-160802037D01*
X118796493Y-159953508D02*
X123500000Y-155250000D01*
X118711641Y-160038362D02*
X118796493Y-159953508D01*
X117947963Y-160802037D02*
G75*
G03*
X117947995Y-160462594I-169663J169737D01*
G01*
X118372229Y-160038363D02*
G75*
G03*
X118711606Y-160038328I169671J169663D01*
G01*
X117611361Y-160126022D02*
G75*
G02*
X117611343Y-159786596I169739J169722D01*
G01*
X117696215Y-159701758D02*
G75*
G02*
X118035606Y-159701778I169685J-169742D01*
G01*
X136500055Y-112757127D02*
X133757127Y-112757127D01*
X133757127Y-112757127D02*
X133250000Y-112250000D01*
X135750000Y-122750000D02*
X135750000Y-117250000D01*
X135750000Y-117250000D02*
X134750000Y-116250000D01*
X133000000Y-151250000D02*
X135250000Y-151250000D01*
X135250000Y-151250000D02*
X136000000Y-150500000D01*
X135500000Y-147250000D02*
X136000000Y-146750000D01*
X133000000Y-147250000D02*
X135500000Y-147250000D01*
X115118179Y-53050003D02*
X115250000Y-53050003D01*
X105568176Y-43500000D02*
X115118179Y-53050003D01*
X105568176Y-43568176D02*
X105568176Y-43500000D01*
X108203300Y-50203300D02*
X121000000Y-63000000D01*
X118278525Y-100750000D02*
X118250000Y-100721475D01*
X118278525Y-100750000D02*
X118278525Y-112928525D01*
X118250000Y-100721475D02*
X118250000Y-76750000D01*
X120600000Y-115250000D02*
X118278525Y-112928525D01*
X118250000Y-76750000D02*
X117500000Y-76000000D01*
X105568176Y-42500000D02*
X115250000Y-52181824D01*
X115250000Y-52181824D02*
X115250000Y-52250000D01*
X132323162Y-113358127D02*
X137030096Y-113358127D01*
X132269899Y-113304864D02*
X132323162Y-113358127D01*
X137030096Y-113358127D02*
X137079286Y-113308937D01*
D27*
X124750000Y-164680000D02*
X124000000Y-164680000D01*
X124000000Y-164680000D02*
X122500000Y-163180000D01*
M02*
