%TF.GenerationSoftware,KiCad,Pcbnew,9.0.7+1*%
%TF.CreationDate,2026-03-22T10:51:14+00:00*%
%TF.ProjectId,sertest-ng,73657274-6573-4742-9d6e-672e6b696361,0.2*%
%TF.SameCoordinates,Original*%
%TF.FileFunction,Plated,1,4,PTH,Mixed*%
%TF.FilePolarity,Positive*%
%FSLAX46Y46*%
G04 Gerber Fmt 4.6, Leading zero omitted, Abs format (unit mm)*
G04 Created by KiCad (PCBNEW 9.0.7+1) date 2026-03-22 10:51:14*
%MOMM*%
%LPD*%
G01*
G04 APERTURE LIST*
%TA.AperFunction,ViaDrill*%
%ADD10C,0.300000*%
%TD*%
G04 aperture for slot hole*
%TA.AperFunction,ComponentDrill*%
%ADD11C,0.600000*%
%TD*%
%TA.AperFunction,ComponentDrill*%
%ADD12C,0.800000*%
%TD*%
%TA.AperFunction,ComponentDrill*%
%ADD13C,0.900000*%
%TD*%
%TA.AperFunction,ComponentDrill*%
%ADD14C,1.000000*%
%TD*%
%TA.AperFunction,ComponentDrill*%
%ADD15C,1.100000*%
%TD*%
%TA.AperFunction,ComponentDrill*%
%ADD16C,1.150000*%
%TD*%
%TA.AperFunction,ComponentDrill*%
%ADD17C,3.200000*%
%TD*%
G04 APERTURE END LIST*
D10*
X101251000Y-47500000D03*
X103250000Y-77250000D03*
X104199997Y-61500000D03*
X104750000Y-56750000D03*
X104985735Y-55514265D03*
X105000000Y-61500000D03*
X105568176Y-42500000D03*
X105568176Y-43500000D03*
X105750000Y-50100000D03*
X105899994Y-54500000D03*
X106250000Y-61750000D03*
X106250000Y-69000000D03*
X106250000Y-96500000D03*
X106699997Y-54500000D03*
X107184313Y-50100000D03*
X107200414Y-42525794D03*
X107500000Y-54500000D03*
X107500000Y-55750000D03*
X107500000Y-60750000D03*
X107500000Y-91500000D03*
X107500000Y-96500000D03*
X107750000Y-49500000D03*
X108000000Y-42500000D03*
X108100000Y-57500000D03*
X108146415Y-56605055D03*
X108203300Y-50203300D03*
X108324266Y-54475737D03*
X108750000Y-75250000D03*
X108750000Y-96500000D03*
X109400000Y-62651415D03*
X110000000Y-81250000D03*
X110000000Y-96500000D03*
X110600443Y-57625000D03*
X111500000Y-44000000D03*
X112250000Y-52250000D03*
X113750000Y-46500000D03*
X113750000Y-53500000D03*
X115250000Y-52250000D03*
X115250000Y-53050003D03*
X116250000Y-49500000D03*
X117000000Y-163000000D03*
X117500000Y-54000000D03*
X117500000Y-75000000D03*
X117500000Y-76000000D03*
X117975029Y-114806017D03*
X118000000Y-161500000D03*
X118235648Y-115750000D03*
X118235648Y-116749999D03*
X118250000Y-47500000D03*
X119250000Y-42500000D03*
X119846000Y-70000000D03*
X120000000Y-21750000D03*
X120448404Y-113216109D03*
X120485416Y-118512153D03*
X120499991Y-116295406D03*
X120600000Y-114275907D03*
X120600000Y-115250000D03*
X120975580Y-63891266D03*
X121000000Y-63000000D03*
X121498997Y-118000000D03*
X121500000Y-27500000D03*
X121750000Y-148500000D03*
X121750000Y-150000000D03*
X122250000Y-109750000D03*
X122500000Y-46500000D03*
X122500000Y-163180000D03*
X122699997Y-106750000D03*
X122699997Y-118000000D03*
X122750000Y-24000000D03*
X122750000Y-89250000D03*
X122750000Y-117000000D03*
X122900000Y-127000000D03*
X122900000Y-128250000D03*
X123075735Y-111424265D03*
X123250000Y-81750000D03*
X123250000Y-84250000D03*
X123250000Y-86750000D03*
X123500000Y-38750000D03*
X123500000Y-106750000D03*
X123500000Y-118000000D03*
X123500000Y-121250000D03*
X124300003Y-106750000D03*
X124300003Y-121250000D03*
X124450735Y-59799265D03*
X124750000Y-164680000D03*
X125000000Y-163750000D03*
X125099879Y-106735812D03*
X125250000Y-63250000D03*
X125250000Y-65500000D03*
X125250000Y-151000000D03*
X125299691Y-50500000D03*
X125299691Y-55500000D03*
X125299691Y-60500000D03*
X125299691Y-70500000D03*
X125299691Y-75500000D03*
X125899691Y-106753267D03*
X126250000Y-109750000D03*
X126500000Y-37000000D03*
X126750000Y-106750000D03*
X127000000Y-33000000D03*
X127500000Y-31500000D03*
X127500002Y-107028391D03*
X127750000Y-117750000D03*
X128250000Y-106750000D03*
X128549995Y-117747054D03*
X128750000Y-113250000D03*
X129050003Y-106750000D03*
X129250000Y-118500000D03*
X129433971Y-112476202D03*
X129650003Y-31500000D03*
X130000000Y-30750000D03*
X130000000Y-32750000D03*
X130000000Y-35750000D03*
X130000000Y-37000000D03*
X130000000Y-39250000D03*
X130000000Y-40500000D03*
X130000000Y-164180000D03*
X130250000Y-62750000D03*
X130500000Y-97750000D03*
X130904998Y-160780000D03*
X130904998Y-167080000D03*
X130943967Y-162280000D03*
X130943967Y-165280000D03*
X130981356Y-94619206D03*
X130981356Y-100880794D03*
X131000000Y-95500000D03*
X131000000Y-100000000D03*
X132000000Y-92250000D03*
X132000000Y-117250000D03*
X132000000Y-118500000D03*
X132269899Y-113304864D03*
X132300000Y-112100000D03*
X132500000Y-127000000D03*
X132500000Y-137250000D03*
X132750000Y-108500000D03*
X133000000Y-147250000D03*
X133000000Y-151250000D03*
X133126272Y-163465570D03*
X133250000Y-31500000D03*
X133250000Y-60750000D03*
X133250000Y-112250000D03*
X134250000Y-134250000D03*
X134750000Y-116250000D03*
X134750000Y-140250000D03*
X135000000Y-109500000D03*
X135750000Y-122750000D03*
X136000000Y-146750000D03*
X136000000Y-150500000D03*
X136250000Y-142250000D03*
X136500055Y-112757127D03*
X137000000Y-108250000D03*
X137079286Y-113308937D03*
X137500000Y-137250000D03*
D11*
%TO.C,J301*%
X133175000Y-159610000D02*
X132075000Y-159610000D01*
X133175000Y-168250000D02*
X132075000Y-168250000D01*
%TO.C,J101*%
X133425000Y-93430000D02*
X132325000Y-93430000D01*
X133425000Y-102070000D02*
X132325000Y-102070000D01*
%TO.C,J301*%
X137225000Y-159610000D02*
X136425000Y-159610000D01*
X137225000Y-168250000D02*
X136425000Y-168250000D01*
%TO.C,J101*%
X137475000Y-93430000D02*
X136675000Y-93430000D01*
X137475000Y-102070000D02*
X136675000Y-102070000D01*
D12*
%TO.C,C105*%
X117000000Y-100000000D03*
X117000000Y-103500000D03*
D13*
%TO.C,SW401*%
X108577500Y-146327500D03*
X108577500Y-152327500D03*
X111077500Y-146327500D03*
X111077500Y-152327500D03*
X113577500Y-146327500D03*
X113577500Y-152327500D03*
D14*
%TO.C,J202*%
X95000000Y-40595000D03*
X95000000Y-43365000D03*
X95000000Y-46135000D03*
X95000000Y-48905000D03*
%TO.C,J201*%
X95000000Y-78670000D03*
X95000000Y-81440000D03*
X95000000Y-84210000D03*
X95000000Y-86980000D03*
%TO.C,J401*%
X95160000Y-151690000D03*
X95160000Y-154460000D03*
X95160000Y-157230000D03*
X95160000Y-160000000D03*
%TO.C,J202*%
X97840000Y-39210000D03*
X97840000Y-41980000D03*
X97840000Y-44750000D03*
X97840000Y-47520000D03*
X97840000Y-50290000D03*
%TO.C,J201*%
X97840000Y-77285000D03*
X97840000Y-80055000D03*
X97840000Y-82825000D03*
X97840000Y-85595000D03*
X97840000Y-88365000D03*
%TO.C,J401*%
X98000000Y-150305000D03*
X98000000Y-153075000D03*
X98000000Y-155845000D03*
X98000000Y-158615000D03*
X98000000Y-161385000D03*
%TO.C,JP401*%
X103500000Y-157000000D03*
X103500000Y-159540000D03*
D15*
%TO.C,SW101*%
X102500000Y-22750000D03*
X102500000Y-27250000D03*
X109000000Y-22750000D03*
X109000000Y-27250000D03*
D16*
%TO.C,J203*%
X95000000Y-104000000D03*
X95000000Y-109000000D03*
X95000000Y-114000000D03*
X95000000Y-119000000D03*
%TO.C,J402*%
X95000000Y-129000000D03*
X95000000Y-134000000D03*
%TO.C,J203*%
X100000000Y-104000000D03*
X100000000Y-109000000D03*
X100000000Y-114000000D03*
X100000000Y-119000000D03*
%TO.C,J402*%
X100000000Y-129000000D03*
X100000000Y-134000000D03*
D17*
%TO.C,H101*%
X95000000Y-25000000D03*
%TO.C,J202*%
X95000000Y-32250000D03*
X95000000Y-57250000D03*
%TO.C,J201*%
X95000000Y-70325000D03*
X95000000Y-95325000D03*
%TO.C,H104*%
X95000000Y-175000000D03*
%TO.C,J401*%
X95160000Y-143345000D03*
X95160000Y-168345000D03*
%TO.C,H102*%
X135000000Y-25000000D03*
%TO.C,H103*%
X135000000Y-175000000D03*
M02*
