%TF.GenerationSoftware,KiCad,Pcbnew,9.0.7+1*%
%TF.CreationDate,2026-03-22T10:51:14+00:00*%
%TF.ProjectId,sertest-ng,73657274-6573-4742-9d6e-672e6b696361,0.2*%
%TF.SameCoordinates,Original*%
%TF.FileFunction,Soldermask,Top*%
%TF.FilePolarity,Negative*%
%FSLAX46Y46*%
G04 Gerber Fmt 4.6, Leading zero omitted, Abs format (unit mm)*
G04 Created by KiCad (PCBNEW 9.0.7+1) date 2026-03-22 10:51:14*
%MOMM*%
%LPD*%
G01*
G04 APERTURE LIST*
G04 Aperture macros list*
%AMRoundRect*
0 Rectangle with rounded corners*
0 $1 Rounding radius*
0 $2 $3 $4 $5 $6 $7 $8 $9 X,Y pos of 4 corners*
0 Add a 4 corners polygon primitive as box body*
4,1,4,$2,$3,$4,$5,$6,$7,$8,$9,$2,$3,0*
0 Add four circle primitives for the rounded corners*
1,1,$1+$1,$2,$3*
1,1,$1+$1,$4,$5*
1,1,$1+$1,$6,$7*
1,1,$1+$1,$8,$9*
0 Add four rect primitives between the rounded corners*
20,1,$1+$1,$2,$3,$4,$5,0*
20,1,$1+$1,$4,$5,$6,$7,0*
20,1,$1+$1,$6,$7,$8,$9,0*
20,1,$1+$1,$8,$9,$2,$3,0*%
G04 Aperture macros list end*
%ADD10RoundRect,0.150000X0.150000X-0.825000X0.150000X0.825000X-0.150000X0.825000X-0.150000X-0.825000X0*%
%ADD11RoundRect,0.135000X0.135000X0.185000X-0.135000X0.185000X-0.135000X-0.185000X0.135000X-0.185000X0*%
%ADD12C,2.000000*%
%ADD13RoundRect,0.135000X-0.185000X0.135000X-0.185000X-0.135000X0.185000X-0.135000X0.185000X0.135000X0*%
%ADD14RoundRect,0.100000X-0.100000X0.637500X-0.100000X-0.637500X0.100000X-0.637500X0.100000X0.637500X0*%
%ADD15RoundRect,0.135000X-0.135000X-0.185000X0.135000X-0.185000X0.135000X0.185000X-0.135000X0.185000X0*%
%ADD16RoundRect,0.150000X-0.512500X-0.150000X0.512500X-0.150000X0.512500X0.150000X-0.512500X0.150000X0*%
%ADD17RoundRect,0.218750X-0.218750X-0.256250X0.218750X-0.256250X0.218750X0.256250X-0.218750X0.256250X0*%
%ADD18RoundRect,0.140000X-0.140000X-0.170000X0.140000X-0.170000X0.140000X0.170000X-0.140000X0.170000X0*%
%ADD19R,1.200000X0.900000*%
%ADD20C,5.500000*%
%ADD21RoundRect,0.140000X0.170000X-0.140000X0.170000X0.140000X-0.170000X0.140000X-0.170000X-0.140000X0*%
%ADD22RoundRect,0.140000X-0.170000X0.140000X-0.170000X-0.140000X0.170000X-0.140000X0.170000X0.140000X0*%
%ADD23RoundRect,0.250000X0.312500X0.625000X-0.312500X0.625000X-0.312500X-0.625000X0.312500X-0.625000X0*%
%ADD24R,0.900000X1.200000*%
%ADD25RoundRect,0.100000X0.100000X-0.850000X0.100000X0.850000X-0.100000X0.850000X-0.100000X-0.850000X0*%
%ADD26RoundRect,0.075000X-0.700000X-0.075000X0.700000X-0.075000X0.700000X0.075000X-0.700000X0.075000X0*%
%ADD27RoundRect,0.075000X-0.075000X-0.700000X0.075000X-0.700000X0.075000X0.700000X-0.075000X0.700000X0*%
%ADD28R,1.500000X1.000000*%
%ADD29RoundRect,0.135000X0.185000X-0.135000X0.185000X0.135000X-0.185000X0.135000X-0.185000X-0.135000X0*%
%ADD30RoundRect,0.218750X-0.381250X0.218750X-0.381250X-0.218750X0.381250X-0.218750X0.381250X0.218750X0*%
%ADD31RoundRect,0.112500X-0.187500X-0.112500X0.187500X-0.112500X0.187500X0.112500X-0.187500X0.112500X0*%
%ADD32RoundRect,0.375000X-0.625000X-0.375000X0.625000X-0.375000X0.625000X0.375000X-0.625000X0.375000X0*%
%ADD33RoundRect,0.500000X-0.500000X-1.400000X0.500000X-1.400000X0.500000X1.400000X-0.500000X1.400000X0*%
%ADD34RoundRect,0.218750X0.218750X0.381250X-0.218750X0.381250X-0.218750X-0.381250X0.218750X-0.381250X0*%
%ADD35R,1.000000X1.500000*%
%ADD36R,1.800000X1.000000*%
%ADD37RoundRect,0.140000X0.140000X0.170000X-0.140000X0.170000X-0.140000X-0.170000X0.140000X-0.170000X0*%
%ADD38RoundRect,0.250001X-1.249999X0.499999X-1.249999X-0.499999X1.249999X-0.499999X1.249999X0.499999X0*%
%ADD39R,3.000000X1.500000*%
%ADD40O,3.000000X1.500000*%
%ADD41R,0.300000X0.750000*%
%ADD42R,1.500000X1.300000*%
%ADD43RoundRect,0.250000X0.625000X-0.312500X0.625000X0.312500X-0.625000X0.312500X-0.625000X-0.312500X0*%
%ADD44C,0.650000*%
%ADD45R,1.240000X0.600000*%
%ADD46R,1.240000X0.300000*%
%ADD47O,2.100000X1.000000*%
%ADD48O,1.800000X1.000000*%
%ADD49RoundRect,0.225000X0.225000X0.250000X-0.225000X0.250000X-0.225000X-0.250000X0.225000X-0.250000X0*%
%ADD50RoundRect,0.250000X0.250000X0.475000X-0.250000X0.475000X-0.250000X-0.475000X0.250000X-0.475000X0*%
%ADD51C,4.000000*%
%ADD52R,1.600000X1.600000*%
%ADD53C,1.600000*%
%ADD54RoundRect,0.150000X-0.825000X-0.150000X0.825000X-0.150000X0.825000X0.150000X-0.825000X0.150000X0*%
%ADD55RoundRect,0.150000X0.825000X0.150000X-0.825000X0.150000X-0.825000X-0.150000X0.825000X-0.150000X0*%
%ADD56RoundRect,0.225000X0.250000X-0.225000X0.250000X0.225000X-0.250000X0.225000X-0.250000X-0.225000X0*%
%ADD57R,1.700000X1.700000*%
%ADD58C,1.700000*%
%ADD59RoundRect,0.137500X0.612500X0.137500X-0.612500X0.137500X-0.612500X-0.137500X0.612500X-0.137500X0*%
%ADD60RoundRect,0.150000X-0.150000X0.512500X-0.150000X-0.512500X0.150000X-0.512500X0.150000X0.512500X0*%
%ADD61C,2.374900*%
%ADD62C,0.990600*%
%ADD63C,0.787400*%
%ADD64R,1.800000X1.800000*%
%ADD65C,1.800000*%
%ADD66RoundRect,0.250000X0.550000X-0.550000X0.550000X0.550000X-0.550000X0.550000X-0.550000X-0.550000X0*%
%ADD67RoundRect,0.250000X0.950000X-0.750000X0.950000X0.750000X-0.950000X0.750000X-0.950000X-0.750000X0*%
%ADD68RoundRect,0.218750X0.218750X0.256250X-0.218750X0.256250X-0.218750X-0.256250X0.218750X-0.256250X0*%
G04 APERTURE END LIST*
%TO.C,JP103*%
G36*
X129750000Y-126100000D02*
G01*
X128250000Y-126100000D01*
X128250000Y-126400000D01*
X129750000Y-126400000D01*
X129750000Y-126100000D01*
G37*
%TO.C,JP102*%
G36*
X111625000Y-106172349D02*
G01*
X113225000Y-106172349D01*
X113225000Y-107672349D01*
X111625000Y-107672349D01*
X111625000Y-106172349D01*
G37*
%TO.C,JP402*%
G36*
X136800000Y-149750000D02*
G01*
X135200000Y-149750000D01*
X135200000Y-148250000D01*
X136800000Y-148250000D01*
X136800000Y-149750000D01*
G37*
%TO.C,JP101*%
G36*
X124000000Y-126400000D02*
G01*
X125500000Y-126400000D01*
X125500000Y-126100000D01*
X124000000Y-126100000D01*
X124000000Y-126400000D01*
G37*
%TO.C,JP403*%
G36*
X135200000Y-144250000D02*
G01*
X136800000Y-144250000D01*
X136800000Y-145750000D01*
X135200000Y-145750000D01*
X135200000Y-144250000D01*
G37*
%TD*%
D10*
%TO.C,U106*%
X133345000Y-119725000D03*
X134615000Y-119725000D03*
X135885000Y-119725000D03*
X137155000Y-119725000D03*
X137155000Y-114775000D03*
X135885000Y-114775000D03*
X134615000Y-114775000D03*
X133345000Y-114775000D03*
%TD*%
D11*
%TO.C,R209*%
X134510000Y-49250000D03*
X133490000Y-49250000D03*
%TD*%
D12*
%TO.C,SW101*%
X102500000Y-22750000D03*
X109000000Y-22750000D03*
X102500000Y-27250000D03*
X109000000Y-27250000D03*
%TD*%
D13*
%TO.C,R232*%
X127000000Y-75490000D03*
X127000000Y-76510000D03*
%TD*%
%TO.C,R202*%
X127000000Y-30490000D03*
X127000000Y-31510000D03*
%TD*%
D14*
%TO.C,U202*%
X111325000Y-53137500D03*
X110675000Y-53137500D03*
X110025000Y-53137500D03*
X109375000Y-53137500D03*
X108725000Y-53137500D03*
X108075000Y-53137500D03*
X107425000Y-53137500D03*
X106775000Y-53137500D03*
X106125000Y-53137500D03*
X105475000Y-53137500D03*
X104825000Y-53137500D03*
X104175000Y-53137500D03*
X104175000Y-58862500D03*
X104825000Y-58862500D03*
X105475000Y-58862500D03*
X106125000Y-58862500D03*
X106775000Y-58862500D03*
X107425000Y-58862500D03*
X108075000Y-58862500D03*
X108725000Y-58862500D03*
X109375000Y-58862500D03*
X110025000Y-58862500D03*
X110675000Y-58862500D03*
X111325000Y-58862500D03*
%TD*%
D15*
%TO.C,R407*%
X130990000Y-151250000D03*
X132010000Y-151250000D03*
%TD*%
D11*
%TO.C,R303*%
X127760000Y-155250000D03*
X126740000Y-155250000D03*
%TD*%
D13*
%TO.C,R403*%
X131000000Y-132990000D03*
X131000000Y-134010000D03*
%TD*%
D16*
%TO.C,U301*%
X126112500Y-162980000D03*
X126112500Y-163930000D03*
X126112500Y-164880000D03*
X128387500Y-164880000D03*
X128387500Y-163930000D03*
X128387500Y-162980000D03*
%TD*%
D11*
%TO.C,R217*%
X134510000Y-59250000D03*
X133490000Y-59250000D03*
%TD*%
%TO.C,R205*%
X134510000Y-39250000D03*
X133490000Y-39250000D03*
%TD*%
D17*
%TO.C,D105*%
X126000000Y-88500000D03*
X127575000Y-88500000D03*
%TD*%
D18*
%TO.C,C201*%
X112120000Y-48200000D03*
X113080000Y-48200000D03*
%TD*%
D19*
%TO.C,D211*%
X128600000Y-69275000D03*
X131400000Y-69275000D03*
X131400000Y-70725000D03*
X128600000Y-70725000D03*
%TD*%
D20*
%TO.C,H101*%
X95000000Y-25000000D03*
%TD*%
D21*
%TO.C,C115*%
X117600000Y-109730000D03*
X117600000Y-108770000D03*
%TD*%
D22*
%TO.C,C304*%
X115250000Y-165520000D03*
X115250000Y-166480000D03*
%TD*%
D23*
%TO.C,R107*%
X115462500Y-95952651D03*
X112537500Y-95952651D03*
%TD*%
D24*
%TO.C,D401*%
X136025000Y-138400000D03*
X136025000Y-135600000D03*
X137475000Y-135600000D03*
X137475000Y-138400000D03*
%TD*%
D25*
%TO.C,U201*%
X102525000Y-48000000D03*
X103175000Y-48000000D03*
X103825000Y-48000000D03*
X104475000Y-48000000D03*
X105125000Y-48000000D03*
X105775000Y-48000000D03*
X106425000Y-48000000D03*
X107075000Y-48000000D03*
X107725000Y-48000000D03*
X108375000Y-48000000D03*
X109025000Y-48000000D03*
X109675000Y-48000000D03*
X110325000Y-48000000D03*
X110975000Y-48000000D03*
X110975000Y-41000000D03*
X110325000Y-41000000D03*
X109675000Y-41000000D03*
X109025000Y-41000000D03*
X108375000Y-41000000D03*
X107725000Y-41000000D03*
X107075000Y-41000000D03*
X106425000Y-41000000D03*
X105775000Y-41000000D03*
X105125000Y-41000000D03*
X104475000Y-41000000D03*
X103825000Y-41000000D03*
X103175000Y-41000000D03*
X102525000Y-41000000D03*
%TD*%
D26*
%TO.C,U103*%
X119325000Y-110250000D03*
X119325000Y-110750000D03*
X119325000Y-111250000D03*
X119325000Y-111750000D03*
X119325000Y-112250000D03*
X119325000Y-112750000D03*
X119325000Y-113250000D03*
X119325000Y-113750000D03*
X119325000Y-114250000D03*
X119325000Y-114750000D03*
X119325000Y-115250000D03*
X119325000Y-115750000D03*
X119325000Y-116250000D03*
X119325000Y-116750000D03*
X119325000Y-117250000D03*
X119325000Y-117750000D03*
D27*
X121250000Y-119675000D03*
X121750000Y-119675000D03*
X122250000Y-119675000D03*
X122750000Y-119675000D03*
X123250000Y-119675000D03*
X123750000Y-119675000D03*
X124250000Y-119675000D03*
X124750000Y-119675000D03*
X125250000Y-119675000D03*
X125750000Y-119675000D03*
X126250000Y-119675000D03*
X126750000Y-119675000D03*
X127250000Y-119675000D03*
X127750000Y-119675000D03*
X128250000Y-119675000D03*
X128750000Y-119675000D03*
D26*
X130675000Y-117750000D03*
X130675000Y-117250000D03*
X130675000Y-116750000D03*
X130675000Y-116250000D03*
X130675000Y-115750000D03*
X130675000Y-115250000D03*
X130675000Y-114750000D03*
X130675000Y-114250000D03*
X130675000Y-113750000D03*
X130675000Y-113250000D03*
X130675000Y-112750000D03*
X130675000Y-112250000D03*
X130675000Y-111750000D03*
X130675000Y-111250000D03*
X130675000Y-110750000D03*
X130675000Y-110250000D03*
D27*
X128750000Y-108325000D03*
X128250000Y-108325000D03*
X127750000Y-108325000D03*
X127250000Y-108325000D03*
X126750000Y-108325000D03*
X126250000Y-108325000D03*
X125750000Y-108325000D03*
X125250000Y-108325000D03*
X124750000Y-108325000D03*
X124250000Y-108325000D03*
X123750000Y-108325000D03*
X123250000Y-108325000D03*
X122750000Y-108325000D03*
X122250000Y-108325000D03*
X121750000Y-108325000D03*
X121250000Y-108325000D03*
%TD*%
D21*
%TO.C,C110*%
X120200000Y-107480000D03*
X120200000Y-106520000D03*
%TD*%
D13*
%TO.C,R210*%
X127000000Y-50490000D03*
X127000000Y-51510000D03*
%TD*%
D28*
%TO.C,JP103*%
X129000000Y-125600000D03*
X129000000Y-126900000D03*
%TD*%
D29*
%TO.C,R227*%
X110750000Y-73010000D03*
X110750000Y-71990000D03*
%TD*%
D30*
%TO.C,FB401*%
X101500000Y-141125000D03*
X101500000Y-143250000D03*
%TD*%
D13*
%TO.C,R208*%
X127000000Y-45490000D03*
X127000000Y-46510000D03*
%TD*%
D31*
%TO.C,D101*%
X117150000Y-95952651D03*
X119250000Y-95952651D03*
%TD*%
D18*
%TO.C,C108*%
X130920000Y-109175000D03*
X131880000Y-109175000D03*
%TD*%
D19*
%TO.C,D210*%
X106350000Y-84275000D03*
X109150000Y-84275000D03*
X109150000Y-85725000D03*
X106350000Y-85725000D03*
%TD*%
D24*
%TO.C,D402*%
X131025000Y-138400000D03*
X131025000Y-135600000D03*
X132475000Y-135600000D03*
X132475000Y-138400000D03*
%TD*%
D11*
%TO.C,R225*%
X134510000Y-69250000D03*
X133490000Y-69250000D03*
%TD*%
D32*
%TO.C,U105*%
X131850000Y-81200000D03*
X131850000Y-83500000D03*
D33*
X138150000Y-83500000D03*
D32*
X131850000Y-85800000D03*
%TD*%
D22*
%TO.C,C401*%
X123000000Y-145020000D03*
X123000000Y-145980000D03*
%TD*%
D13*
%TO.C,R213*%
X110000000Y-97490000D03*
X110000000Y-98510000D03*
%TD*%
D18*
%TO.C,C102*%
X110770000Y-115500000D03*
X111730000Y-115500000D03*
%TD*%
%TO.C,C104*%
X108790000Y-111750000D03*
X109750000Y-111750000D03*
%TD*%
D34*
%TO.C,FB102*%
X130462500Y-121800000D03*
X128337500Y-121800000D03*
%TD*%
D29*
%TO.C,R226*%
X110750000Y-79260000D03*
X110750000Y-78240000D03*
%TD*%
D34*
%TO.C,FB202*%
X97062500Y-62880000D03*
X94937500Y-62880000D03*
%TD*%
D13*
%TO.C,R218*%
X127000000Y-60490000D03*
X127000000Y-61510000D03*
%TD*%
D11*
%TO.C,R207*%
X134510000Y-44250000D03*
X133490000Y-44250000D03*
%TD*%
D13*
%TO.C,R206*%
X127000000Y-40490000D03*
X127000000Y-41510000D03*
%TD*%
D19*
%TO.C,D201*%
X128600000Y-29275000D03*
X131400000Y-29275000D03*
X131400000Y-30725000D03*
X128600000Y-30725000D03*
%TD*%
D35*
%TO.C,JP102*%
X111125000Y-106922349D03*
X112425000Y-106922349D03*
X113725000Y-106922349D03*
%TD*%
D11*
%TO.C,R201*%
X134510000Y-29250000D03*
X133490000Y-29250000D03*
%TD*%
D13*
%TO.C,R222*%
X127000000Y-65490000D03*
X127000000Y-66510000D03*
%TD*%
D36*
%TO.C,Y102*%
X111500000Y-112500000D03*
X111500000Y-110000000D03*
%TD*%
D18*
%TO.C,C113*%
X130020000Y-119875000D03*
X130980000Y-119875000D03*
%TD*%
D13*
%TO.C,R215*%
X107500000Y-97490000D03*
X107500000Y-98510000D03*
%TD*%
%TO.C,R204*%
X127000000Y-35490000D03*
X127000000Y-36510000D03*
%TD*%
D37*
%TO.C,C204*%
X109480000Y-39000000D03*
X108520000Y-39000000D03*
%TD*%
D38*
%TO.C,J203*%
X100000000Y-104000000D03*
D39*
X95000000Y-104000000D03*
D40*
X100000000Y-109000000D03*
X95000000Y-109000000D03*
X100000000Y-114000000D03*
X95000000Y-114000000D03*
X100000000Y-119000000D03*
X95000000Y-119000000D03*
%TD*%
D18*
%TO.C,C101*%
X110770000Y-114000000D03*
X111730000Y-114000000D03*
%TD*%
D13*
%TO.C,R214*%
X108750000Y-97490000D03*
X108750000Y-98510000D03*
%TD*%
D41*
%TO.C,U104*%
X137500000Y-109125000D03*
X137000000Y-109125000D03*
X136500000Y-109125000D03*
X136000000Y-109125000D03*
X136000000Y-112025000D03*
X136500000Y-112025000D03*
X137000000Y-112025000D03*
X137500000Y-112025000D03*
D42*
X136750000Y-110575000D03*
%TD*%
D18*
%TO.C,C208*%
X110520000Y-60600000D03*
X111480000Y-60600000D03*
%TD*%
D19*
%TO.C,D209*%
X106350000Y-90525000D03*
X109150000Y-90525000D03*
X109150000Y-91975000D03*
X106350000Y-91975000D03*
%TD*%
D13*
%TO.C,R302*%
X130250000Y-159740000D03*
X130250000Y-160760000D03*
%TD*%
D43*
%TO.C,R405*%
X120000000Y-153462500D03*
X120000000Y-150537500D03*
%TD*%
D34*
%TO.C,FB301*%
X136312500Y-170430000D03*
X134187500Y-170430000D03*
%TD*%
D44*
%TO.C,J101*%
X133395000Y-100640000D03*
X133395000Y-94860000D03*
D45*
X132275000Y-100950000D03*
X132275000Y-100150000D03*
D46*
X132275000Y-99000000D03*
X132275000Y-98000000D03*
X132275000Y-97500000D03*
X132275000Y-96500000D03*
D45*
X132275000Y-95350000D03*
X132275000Y-94550000D03*
X132275000Y-94550000D03*
X132275000Y-95350000D03*
D46*
X132275000Y-96000000D03*
X132275000Y-97000000D03*
X132275000Y-98500000D03*
X132275000Y-99500000D03*
D45*
X132275000Y-100150000D03*
X132275000Y-100950000D03*
D47*
X132875000Y-102070000D03*
D48*
X137075000Y-102070000D03*
D47*
X132875000Y-93430000D03*
D48*
X137075000Y-93430000D03*
%TD*%
D49*
%TO.C,C302*%
X121775000Y-158180000D03*
X120225000Y-158180000D03*
%TD*%
D17*
%TO.C,D104*%
X126000000Y-86000000D03*
X127575000Y-86000000D03*
%TD*%
D37*
%TO.C,C205*%
X110880000Y-51200000D03*
X109920000Y-51200000D03*
%TD*%
D19*
%TO.C,D202*%
X128600000Y-34275000D03*
X131400000Y-34275000D03*
X131400000Y-35725000D03*
X128600000Y-35725000D03*
%TD*%
D35*
%TO.C,JP402*%
X137300000Y-149000000D03*
X136000000Y-149000000D03*
X134700000Y-149000000D03*
%TD*%
D50*
%TO.C,C112*%
X138200000Y-78250000D03*
X136300000Y-78250000D03*
%TD*%
D51*
%TO.C,J201*%
X95000000Y-70325000D03*
X95000000Y-95325000D03*
D52*
X97840000Y-88365000D03*
D53*
X97840000Y-85595000D03*
X97840000Y-82825000D03*
X97840000Y-80055000D03*
X97840000Y-77285000D03*
X95000000Y-86980000D03*
X95000000Y-84210000D03*
X95000000Y-81440000D03*
X95000000Y-78670000D03*
%TD*%
D51*
%TO.C,J401*%
X95160000Y-143345000D03*
X95160000Y-168345000D03*
D52*
X98000000Y-150305000D03*
D53*
X98000000Y-153075000D03*
X98000000Y-155845000D03*
X98000000Y-158615000D03*
X98000000Y-161385000D03*
X95160000Y-151690000D03*
X95160000Y-154460000D03*
X95160000Y-157230000D03*
X95160000Y-160000000D03*
%TD*%
D19*
%TO.C,D203*%
X128600000Y-39275000D03*
X131400000Y-39275000D03*
X131400000Y-40725000D03*
X128600000Y-40725000D03*
%TD*%
D29*
%TO.C,R109*%
X129000000Y-103760000D03*
X129000000Y-102740000D03*
%TD*%
D13*
%TO.C,R228*%
X127000000Y-70490000D03*
X127000000Y-71510000D03*
%TD*%
D19*
%TO.C,D208*%
X128600000Y-64275000D03*
X131400000Y-64275000D03*
X131400000Y-65725000D03*
X128600000Y-65725000D03*
%TD*%
%TO.C,D214*%
X128600000Y-74275000D03*
X131400000Y-74275000D03*
X131400000Y-75725000D03*
X128600000Y-75725000D03*
%TD*%
D22*
%TO.C,C207*%
X109400000Y-60720000D03*
X109400000Y-61680000D03*
%TD*%
D19*
%TO.C,D213*%
X106350000Y-71775000D03*
X109150000Y-71775000D03*
X109150000Y-73225000D03*
X106350000Y-73225000D03*
%TD*%
D13*
%TO.C,R102*%
X134500000Y-110490000D03*
X134500000Y-111510000D03*
%TD*%
D11*
%TO.C,R203*%
X134510000Y-34250000D03*
X133490000Y-34250000D03*
%TD*%
D37*
%TO.C,C303*%
X121480000Y-156750000D03*
X120520000Y-156750000D03*
%TD*%
D15*
%TO.C,R230*%
X106490000Y-70000000D03*
X107510000Y-70000000D03*
%TD*%
%TO.C,R402*%
X137240000Y-140000000D03*
X138260000Y-140000000D03*
%TD*%
D37*
%TO.C,C203*%
X110280000Y-49950000D03*
X109320000Y-49950000D03*
%TD*%
D54*
%TO.C,U101*%
X116275000Y-124345000D03*
X116275000Y-125615000D03*
X116275000Y-126885000D03*
X116275000Y-128155000D03*
X121225000Y-128155000D03*
X121225000Y-126885000D03*
X121225000Y-125615000D03*
X121225000Y-124345000D03*
%TD*%
D22*
%TO.C,C206*%
X112500000Y-59020000D03*
X112500000Y-59980000D03*
%TD*%
D17*
%TO.C,D103*%
X126000000Y-83500000D03*
X127575000Y-83500000D03*
%TD*%
D20*
%TO.C,H104*%
X95000000Y-175000000D03*
%TD*%
D15*
%TO.C,R113*%
X123265000Y-88500000D03*
X124285000Y-88500000D03*
%TD*%
D29*
%TO.C,R101*%
X124750000Y-123760000D03*
X124750000Y-122740000D03*
%TD*%
D51*
%TO.C,J202*%
X95000000Y-32250000D03*
X95000000Y-57250000D03*
D52*
X97840000Y-50290000D03*
D53*
X97840000Y-47520000D03*
X97840000Y-44750000D03*
X97840000Y-41980000D03*
X97840000Y-39210000D03*
X95000000Y-48905000D03*
X95000000Y-46135000D03*
X95000000Y-43365000D03*
X95000000Y-40595000D03*
%TD*%
D15*
%TO.C,R116*%
X137490000Y-124500000D03*
X138510000Y-124500000D03*
%TD*%
D19*
%TO.C,D204*%
X128600000Y-44275000D03*
X131400000Y-44275000D03*
X131400000Y-45725000D03*
X128600000Y-45725000D03*
%TD*%
D13*
%TO.C,R103*%
X133250000Y-110490000D03*
X133250000Y-111510000D03*
%TD*%
D19*
%TO.C,D207*%
X128600000Y-59275000D03*
X131400000Y-59275000D03*
X131400000Y-60725000D03*
X128600000Y-60725000D03*
%TD*%
D13*
%TO.C,R216*%
X106250000Y-97490000D03*
X106250000Y-98510000D03*
%TD*%
D55*
%TO.C,U401*%
X128475000Y-151155000D03*
X128475000Y-149885000D03*
X128475000Y-148615000D03*
X128475000Y-147345000D03*
X123525000Y-147345000D03*
X123525000Y-148615000D03*
X123525000Y-149885000D03*
X123525000Y-151155000D03*
%TD*%
D15*
%TO.C,R114*%
X126267500Y-24500000D03*
X127287500Y-24500000D03*
%TD*%
%TO.C,R110*%
X123265000Y-81000000D03*
X124285000Y-81000000D03*
%TD*%
D11*
%TO.C,R105*%
X136510000Y-103750000D03*
X135490000Y-103750000D03*
%TD*%
D15*
%TO.C,R112*%
X123265000Y-86000000D03*
X124285000Y-86000000D03*
%TD*%
D19*
%TO.C,D205*%
X128600000Y-49275000D03*
X131400000Y-49275000D03*
X131400000Y-50725000D03*
X128600000Y-50725000D03*
%TD*%
D28*
%TO.C,JP101*%
X124750000Y-126900000D03*
X124750000Y-125600000D03*
%TD*%
D11*
%TO.C,R231*%
X134510000Y-74250000D03*
X133490000Y-74250000D03*
%TD*%
D16*
%TO.C,U102*%
X127112500Y-96800000D03*
X127112500Y-97750000D03*
X127112500Y-98700000D03*
X129387500Y-98700000D03*
X129387500Y-97750000D03*
X129387500Y-96800000D03*
%TD*%
D15*
%TO.C,R223*%
X106490000Y-88750000D03*
X107510000Y-88750000D03*
%TD*%
D56*
%TO.C,C301*%
X128250000Y-159705000D03*
X128250000Y-158155000D03*
%TD*%
D11*
%TO.C,R219*%
X134510000Y-64250000D03*
X133490000Y-64250000D03*
%TD*%
%TO.C,R211*%
X134510000Y-54250000D03*
X133490000Y-54250000D03*
%TD*%
D17*
%TO.C,D106*%
X128750000Y-24500000D03*
X130325000Y-24500000D03*
%TD*%
D44*
%TO.C,J301*%
X133145000Y-166820000D03*
X133145000Y-161040000D03*
D45*
X132025000Y-167130000D03*
X132025000Y-166330000D03*
D46*
X132025000Y-165180000D03*
X132025000Y-164180000D03*
X132025000Y-163680000D03*
X132025000Y-162680000D03*
D45*
X132025000Y-161530000D03*
X132025000Y-160730000D03*
X132025000Y-160730000D03*
X132025000Y-161530000D03*
D46*
X132025000Y-162180000D03*
X132025000Y-163180000D03*
X132025000Y-164680000D03*
X132025000Y-165680000D03*
D45*
X132025000Y-166330000D03*
X132025000Y-167130000D03*
D47*
X132625000Y-168250000D03*
D48*
X136825000Y-168250000D03*
D47*
X132625000Y-159610000D03*
D48*
X136825000Y-159610000D03*
%TD*%
D57*
%TO.C,JP401*%
X103500000Y-159540000D03*
D58*
X103500000Y-157000000D03*
%TD*%
D15*
%TO.C,R408*%
X130990000Y-147250000D03*
X132010000Y-147250000D03*
%TD*%
%TO.C,R111*%
X123265000Y-83500000D03*
X124285000Y-83500000D03*
%TD*%
D13*
%TO.C,R212*%
X127000000Y-55490000D03*
X127000000Y-56510000D03*
%TD*%
D59*
%TO.C,U303*%
X120900000Y-164335000D03*
X120900000Y-163065000D03*
X120900000Y-161795000D03*
X120900000Y-160525000D03*
X115600000Y-160525000D03*
X115600000Y-161795000D03*
X115600000Y-163065000D03*
X115600000Y-164335000D03*
%TD*%
D15*
%TO.C,R404*%
X132240000Y-140000000D03*
X133260000Y-140000000D03*
%TD*%
%TO.C,R229*%
X106490000Y-76250000D03*
X107510000Y-76250000D03*
%TD*%
D34*
%TO.C,FB201*%
X97062500Y-64880000D03*
X94937500Y-64880000D03*
%TD*%
D20*
%TO.C,H103*%
X135000000Y-175000000D03*
%TD*%
D50*
%TO.C,C109*%
X131950000Y-88750000D03*
X130050000Y-88750000D03*
%TD*%
D60*
%TO.C,U302*%
X125450000Y-158292500D03*
X123550000Y-158292500D03*
X124500000Y-160567500D03*
%TD*%
D13*
%TO.C,R401*%
X136000000Y-132990000D03*
X136000000Y-134010000D03*
%TD*%
D19*
%TO.C,D206*%
X128600000Y-54275000D03*
X131400000Y-54275000D03*
X131400000Y-55725000D03*
X128600000Y-55725000D03*
%TD*%
D35*
%TO.C,JP403*%
X134700000Y-145000000D03*
X136000000Y-145000000D03*
X137300000Y-145000000D03*
%TD*%
D15*
%TO.C,R224*%
X106490000Y-82500000D03*
X107510000Y-82500000D03*
%TD*%
D29*
%TO.C,R220*%
X110740000Y-91750000D03*
X110740000Y-90730000D03*
%TD*%
%TO.C,R115*%
X132500000Y-126260000D03*
X132500000Y-125240000D03*
%TD*%
D37*
%TO.C,C111*%
X119035000Y-118825000D03*
X118075000Y-118825000D03*
%TD*%
%TO.C,C114*%
X137730000Y-76500000D03*
X136770000Y-76500000D03*
%TD*%
D29*
%TO.C,R221*%
X110740000Y-85510000D03*
X110740000Y-84490000D03*
%TD*%
D18*
%TO.C,C202*%
X110520000Y-39000000D03*
X111480000Y-39000000D03*
%TD*%
D61*
%TO.C,J102*%
X121675000Y-22460000D03*
D62*
X119135000Y-22460000D03*
D61*
X116595000Y-22460000D03*
X121675000Y-25635000D03*
X116595000Y-25635000D03*
D62*
X120151000Y-27540000D03*
X118119000Y-27540000D03*
D63*
X118500000Y-23730000D03*
X119770000Y-23730000D03*
X118500000Y-25000000D03*
X119770000Y-25000000D03*
X118500000Y-26270000D03*
X119770000Y-26270000D03*
%TD*%
D37*
%TO.C,C116*%
X126960000Y-121500000D03*
X126000000Y-121500000D03*
%TD*%
D13*
%TO.C,R108*%
X130250000Y-102740000D03*
X130250000Y-103760000D03*
%TD*%
D17*
%TO.C,D102*%
X126000000Y-81000000D03*
X127575000Y-81000000D03*
%TD*%
D19*
%TO.C,D212*%
X106350000Y-78025000D03*
X109150000Y-78025000D03*
X109150000Y-79475000D03*
X106350000Y-79475000D03*
%TD*%
D11*
%TO.C,R104*%
X134260000Y-103750000D03*
X133240000Y-103750000D03*
%TD*%
D64*
%TO.C,SW401*%
X108577500Y-146327500D03*
D65*
X111077500Y-146327500D03*
X113577500Y-146327500D03*
X108577500Y-152327500D03*
X111077500Y-152327500D03*
X113577500Y-152327500D03*
%TD*%
D34*
%TO.C,FB101*%
X130062500Y-93500000D03*
X127937500Y-93500000D03*
%TD*%
D43*
%TO.C,R406*%
X120000000Y-148175000D03*
X120000000Y-145250000D03*
%TD*%
D66*
%TO.C,C105*%
X117000000Y-103500000D03*
D53*
X117000000Y-100000000D03*
%TD*%
D21*
%TO.C,C106*%
X100035000Y-25480000D03*
X100035000Y-24520000D03*
%TD*%
D67*
%TO.C,Y101*%
X115750000Y-115850000D03*
X115750000Y-112150000D03*
%TD*%
D20*
%TO.C,H102*%
X135000000Y-25000000D03*
%TD*%
D13*
%TO.C,R301*%
X130250000Y-167240000D03*
X130250000Y-168260000D03*
%TD*%
D68*
%TO.C,D301*%
X125287500Y-155250000D03*
X123712500Y-155250000D03*
%TD*%
D38*
%TO.C,J402*%
X100000000Y-129000000D03*
D39*
X95000000Y-129000000D03*
D40*
X100000000Y-134000000D03*
X95000000Y-134000000D03*
%TD*%
D13*
%TO.C,R106*%
X113000000Y-114240000D03*
X113000000Y-115260000D03*
%TD*%
D18*
%TO.C,C103*%
X108770000Y-110500000D03*
X109730000Y-110500000D03*
%TD*%
D50*
%TO.C,C107*%
X131950000Y-91000000D03*
X130050000Y-91000000D03*
%TD*%
M02*
