%TF.GenerationSoftware,KiCad,Pcbnew,9.0.7+1*%
%TF.CreationDate,2026-03-14T14:56:14+00:00*%
%TF.ProjectId,sertest-ng,73657274-6573-4742-9d6e-672e6b696361,0.1*%
%TF.SameCoordinates,Original*%
%TF.FileFunction,Soldermask,Bot*%
%TF.FilePolarity,Negative*%
%FSLAX46Y46*%
G04 Gerber Fmt 4.6, Leading zero omitted, Abs format (unit mm)*
G04 Created by KiCad (PCBNEW 9.0.7+1) date 2026-03-14 14:56:14*
%MOMM*%
%LPD*%
G01*
G04 APERTURE LIST*
G04 Aperture macros list*
%AMRoundRect*
0 Rectangle with rounded corners*
0 $1 Rounding radius*
0 $2 $3 $4 $5 $6 $7 $8 $9 X,Y pos of 4 corners*
0 Add a 4 corners polygon primitive as box body*
4,1,4,$2,$3,$4,$5,$6,$7,$8,$9,$2,$3,0*
0 Add four circle primitives for the rounded corners*
1,1,$1+$1,$2,$3*
1,1,$1+$1,$4,$5*
1,1,$1+$1,$6,$7*
1,1,$1+$1,$8,$9*
0 Add four rect primitives between the rounded corners*
20,1,$1+$1,$2,$3,$4,$5,0*
20,1,$1+$1,$4,$5,$6,$7,0*
20,1,$1+$1,$6,$7,$8,$9,0*
20,1,$1+$1,$8,$9,$2,$3,0*%
G04 Aperture macros list end*
%ADD10C,2.000000*%
%ADD11C,5.500000*%
%ADD12RoundRect,0.250001X-1.249999X0.499999X-1.249999X-0.499999X1.249999X-0.499999X1.249999X0.499999X0*%
%ADD13R,3.000000X1.500000*%
%ADD14O,3.000000X1.500000*%
%ADD15C,0.650000*%
%ADD16O,2.100000X1.000000*%
%ADD17O,1.800000X1.000000*%
%ADD18C,4.000000*%
%ADD19R,1.600000X1.600000*%
%ADD20C,1.600000*%
%ADD21R,1.700000X1.700000*%
%ADD22C,1.700000*%
%ADD23C,2.374900*%
%ADD24C,0.990600*%
%ADD25R,1.800000X1.800000*%
%ADD26C,1.800000*%
%ADD27RoundRect,0.250000X0.550000X-0.550000X0.550000X0.550000X-0.550000X0.550000X-0.550000X-0.550000X0*%
G04 APERTURE END LIST*
D10*
%TO.C,SW101*%
X102500000Y-22750000D03*
X109000000Y-22750000D03*
X102500000Y-27250000D03*
X109000000Y-27250000D03*
%TD*%
D11*
%TO.C,H101*%
X95000000Y-25000000D03*
%TD*%
D12*
%TO.C,J203*%
X100000000Y-104000000D03*
D13*
X95000000Y-104000000D03*
D14*
X100000000Y-109000000D03*
X95000000Y-109000000D03*
X100000000Y-114000000D03*
X95000000Y-114000000D03*
X100000000Y-119000000D03*
X95000000Y-119000000D03*
%TD*%
D15*
%TO.C,J101*%
X133395000Y-100640000D03*
X133395000Y-94860000D03*
D16*
X132875000Y-102070000D03*
D17*
X137075000Y-102070000D03*
D16*
X132875000Y-93430000D03*
D17*
X137075000Y-93430000D03*
%TD*%
D18*
%TO.C,J201*%
X95000000Y-70325000D03*
X95000000Y-95325000D03*
D19*
X97840000Y-88365000D03*
D20*
X97840000Y-85595000D03*
X97840000Y-82825000D03*
X97840000Y-80055000D03*
X97840000Y-77285000D03*
X95000000Y-86980000D03*
X95000000Y-84210000D03*
X95000000Y-81440000D03*
X95000000Y-78670000D03*
%TD*%
D18*
%TO.C,J401*%
X95160000Y-143345000D03*
X95160000Y-168345000D03*
D19*
X98000000Y-150305000D03*
D20*
X98000000Y-153075000D03*
X98000000Y-155845000D03*
X98000000Y-158615000D03*
X98000000Y-161385000D03*
X95160000Y-151690000D03*
X95160000Y-154460000D03*
X95160000Y-157230000D03*
X95160000Y-160000000D03*
%TD*%
D11*
%TO.C,H104*%
X95000000Y-175000000D03*
%TD*%
D18*
%TO.C,J202*%
X95000000Y-32250000D03*
X95000000Y-57250000D03*
D19*
X97840000Y-50290000D03*
D20*
X97840000Y-47520000D03*
X97840000Y-44750000D03*
X97840000Y-41980000D03*
X97840000Y-39210000D03*
X95000000Y-48905000D03*
X95000000Y-46135000D03*
X95000000Y-43365000D03*
X95000000Y-40595000D03*
%TD*%
D15*
%TO.C,J301*%
X133145000Y-166820000D03*
X133145000Y-161040000D03*
D16*
X132625000Y-168250000D03*
D17*
X136825000Y-168250000D03*
D16*
X132625000Y-159610000D03*
D17*
X136825000Y-159610000D03*
%TD*%
D21*
%TO.C,JP401*%
X103500000Y-159540000D03*
D22*
X103500000Y-157000000D03*
%TD*%
D11*
%TO.C,H103*%
X135000000Y-175000000D03*
%TD*%
D23*
%TO.C,J102*%
X121675000Y-22460000D03*
D24*
X119135000Y-22460000D03*
D23*
X116595000Y-22460000D03*
X121675000Y-25635000D03*
X116595000Y-25635000D03*
D24*
X120151000Y-27540000D03*
X118119000Y-27540000D03*
%TD*%
D25*
%TO.C,SW401*%
X108577500Y-146327500D03*
D26*
X111077500Y-146327500D03*
X113577500Y-146327500D03*
X108577500Y-152327500D03*
X111077500Y-152327500D03*
X113577500Y-152327500D03*
%TD*%
D27*
%TO.C,C105*%
X117000000Y-103500000D03*
D20*
X117000000Y-100000000D03*
%TD*%
D11*
%TO.C,H102*%
X135000000Y-25000000D03*
%TD*%
D12*
%TO.C,J402*%
X100000000Y-129000000D03*
D13*
X95000000Y-129000000D03*
D14*
X100000000Y-134000000D03*
X95000000Y-134000000D03*
%TD*%
M02*
