G04 #@! TF.GenerationSoftware,KiCad,Pcbnew,9.0.7+1*
G04 #@! TF.CreationDate,2026-03-22T10:50:57+00:00*
G04 #@! TF.ProjectId,sertest-ng,73657274-6573-4742-9d6e-672e6b696361,0.2*
G04 #@! TF.SameCoordinates,Original*
G04 #@! TF.FileFunction,Copper,L3,Inr*
G04 #@! TF.FilePolarity,Positive*
%FSLAX46Y46*%
G04 Gerber Fmt 4.6, Leading zero omitted, Abs format (unit mm)*
G04 Created by KiCad (PCBNEW 9.0.7+1) date 2026-03-22 10:50:57*
%MOMM*%
%LPD*%
G01*
G04 APERTURE LIST*
%ADD10C,0.200000*%
G04 #@! TA.AperFunction,NonConductor*
%ADD11C,0.200000*%
G04 #@! TD*
G04 #@! TA.AperFunction,ComponentPad*
%ADD12C,2.000000*%
G04 #@! TD*
G04 #@! TA.AperFunction,ComponentPad*
%ADD13C,5.500000*%
G04 #@! TD*
G04 #@! TA.AperFunction,ComponentPad*
%ADD14R,3.000000X1.500000*%
G04 #@! TD*
G04 #@! TA.AperFunction,ComponentPad*
%ADD15O,3.000000X1.500000*%
G04 #@! TD*
G04 #@! TA.AperFunction,HeatsinkPad*
%ADD16O,2.100000X1.000000*%
G04 #@! TD*
G04 #@! TA.AperFunction,HeatsinkPad*
%ADD17O,1.800000X1.000000*%
G04 #@! TD*
G04 #@! TA.AperFunction,ComponentPad*
%ADD18C,4.000000*%
G04 #@! TD*
G04 #@! TA.AperFunction,ComponentPad*
%ADD19R,1.600000X1.600000*%
G04 #@! TD*
G04 #@! TA.AperFunction,ComponentPad*
%ADD20C,1.600000*%
G04 #@! TD*
G04 #@! TA.AperFunction,ComponentPad*
%ADD21R,1.700000X1.700000*%
G04 #@! TD*
G04 #@! TA.AperFunction,ComponentPad*
%ADD22C,1.700000*%
G04 #@! TD*
G04 #@! TA.AperFunction,ComponentPad*
%ADD23R,1.800000X1.800000*%
G04 #@! TD*
G04 #@! TA.AperFunction,ComponentPad*
%ADD24C,1.800000*%
G04 #@! TD*
G04 #@! TA.AperFunction,ViaPad*
%ADD25C,0.600000*%
G04 #@! TD*
G04 #@! TA.AperFunction,Conductor*
%ADD26C,0.200000*%
G04 #@! TD*
G04 #@! TA.AperFunction,Conductor*
%ADD27C,0.500000*%
G04 #@! TD*
G04 APERTURE END LIST*
D10*
D11*
X137182219Y-154793332D02*
X137182219Y-154174285D01*
X137182219Y-154174285D02*
X137563171Y-154507618D01*
X137563171Y-154507618D02*
X137563171Y-154364761D01*
X137563171Y-154364761D02*
X137610790Y-154269523D01*
X137610790Y-154269523D02*
X137658409Y-154221904D01*
X137658409Y-154221904D02*
X137753647Y-154174285D01*
X137753647Y-154174285D02*
X137991742Y-154174285D01*
X137991742Y-154174285D02*
X138086980Y-154221904D01*
X138086980Y-154221904D02*
X138134600Y-154269523D01*
X138134600Y-154269523D02*
X138182219Y-154364761D01*
X138182219Y-154364761D02*
X138182219Y-154650475D01*
X138182219Y-154650475D02*
X138134600Y-154745713D01*
X138134600Y-154745713D02*
X138086980Y-154793332D01*
D12*
X102500000Y-22750000D03*
X109000000Y-22750000D03*
X102500000Y-27250000D03*
X109000000Y-27250000D03*
D13*
X95000000Y-25000000D03*
G04 #@! TA.AperFunction,ComponentPad*
G36*
G01*
X98750001Y-103250000D02*
X101249999Y-103250000D01*
G75*
G02*
X101500000Y-103500001I0J-250001D01*
G01*
X101500000Y-104499999D01*
G75*
G02*
X101249999Y-104750000I-250001J0D01*
G01*
X98750001Y-104750000D01*
G75*
G02*
X98500000Y-104499999I0J250001D01*
G01*
X98500000Y-103500001D01*
G75*
G02*
X98750001Y-103250000I250001J0D01*
G01*
G37*
G04 #@! TD.AperFunction*
D14*
X95000000Y-104000000D03*
D15*
X100000000Y-109000000D03*
X95000000Y-109000000D03*
X100000000Y-114000000D03*
X95000000Y-114000000D03*
X100000000Y-119000000D03*
X95000000Y-119000000D03*
D16*
X132875000Y-102070000D03*
D17*
X137075000Y-102070000D03*
D16*
X132875000Y-93430000D03*
D17*
X137075000Y-93430000D03*
D18*
X95000000Y-70325000D03*
X95000000Y-95325000D03*
D19*
X97840000Y-88365000D03*
D20*
X97840000Y-85595000D03*
X97840000Y-82825000D03*
X97840000Y-80055000D03*
X97840000Y-77285000D03*
X95000000Y-86980000D03*
X95000000Y-84210000D03*
X95000000Y-81440000D03*
X95000000Y-78670000D03*
D18*
X95160000Y-143345000D03*
X95160000Y-168345000D03*
D19*
X98000000Y-150305000D03*
D20*
X98000000Y-153075000D03*
X98000000Y-155845000D03*
X98000000Y-158615000D03*
X98000000Y-161385000D03*
X95160000Y-151690000D03*
X95160000Y-154460000D03*
X95160000Y-157230000D03*
X95160000Y-160000000D03*
D13*
X95000000Y-175000000D03*
D18*
X95000000Y-32250000D03*
X95000000Y-57250000D03*
D19*
X97840000Y-50290000D03*
D20*
X97840000Y-47520000D03*
X97840000Y-44750000D03*
X97840000Y-41980000D03*
X97840000Y-39210000D03*
X95000000Y-48905000D03*
X95000000Y-46135000D03*
X95000000Y-43365000D03*
X95000000Y-40595000D03*
D16*
X132625000Y-168250000D03*
D17*
X136825000Y-168250000D03*
D16*
X132625000Y-159610000D03*
D17*
X136825000Y-159610000D03*
D21*
X103500000Y-159540000D03*
D22*
X103500000Y-157000000D03*
D13*
X135000000Y-175000000D03*
D23*
X108577500Y-146327500D03*
D24*
X111077500Y-146327500D03*
X113577500Y-146327500D03*
X108577500Y-152327500D03*
X111077500Y-152327500D03*
X113577500Y-152327500D03*
G04 #@! TA.AperFunction,ComponentPad*
G36*
G01*
X117550000Y-104300000D02*
X116450000Y-104300000D01*
G75*
G02*
X116200000Y-104050000I0J250000D01*
G01*
X116200000Y-102950000D01*
G75*
G02*
X116450000Y-102700000I250000J0D01*
G01*
X117550000Y-102700000D01*
G75*
G02*
X117800000Y-102950000I0J-250000D01*
G01*
X117800000Y-104050000D01*
G75*
G02*
X117550000Y-104300000I-250000J0D01*
G01*
G37*
G04 #@! TD.AperFunction*
D20*
X117000000Y-100000000D03*
D13*
X135000000Y-25000000D03*
G04 #@! TA.AperFunction,ComponentPad*
G36*
G01*
X98750001Y-128250000D02*
X101249999Y-128250000D01*
G75*
G02*
X101500000Y-128500001I0J-250001D01*
G01*
X101500000Y-129499999D01*
G75*
G02*
X101249999Y-129750000I-250001J0D01*
G01*
X98750001Y-129750000D01*
G75*
G02*
X98500000Y-129499999I0J250001D01*
G01*
X98500000Y-128500001D01*
G75*
G02*
X98750001Y-128250000I250001J0D01*
G01*
G37*
G04 #@! TD.AperFunction*
D14*
X95000000Y-129000000D03*
D15*
X100000000Y-134000000D03*
X95000000Y-134000000D03*
D25*
X111500000Y-44000000D03*
X119250000Y-42500000D03*
X134250000Y-134250000D03*
X132300000Y-112100000D03*
X132750000Y-108500000D03*
X113750000Y-46500000D03*
X118250000Y-47500000D03*
X137000000Y-108250000D03*
X107500000Y-55750000D03*
X134750000Y-140250000D03*
X104750000Y-56750000D03*
X130000000Y-32750000D03*
X112250000Y-52250000D03*
X136250000Y-142250000D03*
X130000000Y-39250000D03*
X122500000Y-46500000D03*
X116250000Y-49500000D03*
X130000000Y-40500000D03*
X129250000Y-118500000D03*
X117500000Y-54000000D03*
X123500000Y-38750000D03*
X133250000Y-60750000D03*
X113750000Y-53500000D03*
X135000000Y-109500000D03*
X132000000Y-118500000D03*
X130250000Y-62750000D03*
X133250000Y-31500000D03*
X127000000Y-33000000D03*
X125000000Y-163750000D03*
X125250000Y-63250000D03*
X120448404Y-113216109D03*
X110600443Y-57625000D03*
X131000000Y-95500000D03*
X132000000Y-92250000D03*
X130500000Y-97750000D03*
X131000000Y-100000000D03*
X127500000Y-31500000D03*
X129650003Y-31500000D03*
X130000000Y-35750000D03*
X127750000Y-117750000D03*
X128549995Y-117747054D03*
X130000000Y-30750000D03*
X130000000Y-37000000D03*
X126500000Y-37000000D03*
X118235648Y-116749999D03*
X109400000Y-62651415D03*
X106699997Y-54500000D03*
X120485416Y-118512153D03*
X125299691Y-50500000D03*
X105899994Y-54500000D03*
X118235648Y-115750000D03*
X108100000Y-57500000D03*
X120499991Y-116295406D03*
X125299691Y-55500000D03*
X125299691Y-60500000D03*
X108000000Y-42500000D03*
X121498997Y-118000000D03*
X122699997Y-118000000D03*
X124450735Y-59799265D03*
X125250000Y-65500000D03*
X107200414Y-42525794D03*
X107184313Y-50100000D03*
X120975580Y-63891266D03*
X125299691Y-70500000D03*
X122750000Y-117000000D03*
X119846000Y-70000000D03*
X123500000Y-118000000D03*
X125299691Y-75500000D03*
X105750000Y-50100000D03*
X122250000Y-109750000D03*
X137500000Y-137250000D03*
X123075735Y-111424265D03*
X132500000Y-127000000D03*
X132500000Y-137250000D03*
X130981356Y-100880794D03*
X130981356Y-94619206D03*
X129050003Y-106750000D03*
X120000000Y-21750000D03*
X121500000Y-27500000D03*
X125899691Y-106753267D03*
X128250000Y-106750000D03*
X122750000Y-24000000D03*
X107500000Y-54500000D03*
X108750000Y-96500000D03*
X108750000Y-75250000D03*
X108324266Y-54475737D03*
X110000000Y-81250000D03*
X101251000Y-47500000D03*
X110000000Y-96500000D03*
X107500000Y-60750000D03*
X107500000Y-91500000D03*
X107500000Y-96500000D03*
X107750000Y-49500000D03*
X106250000Y-96500000D03*
X106250000Y-61750000D03*
X106250000Y-69000000D03*
X103250000Y-77250000D03*
X130904998Y-167080000D03*
X130943967Y-165280000D03*
X130943967Y-162280000D03*
X130904998Y-160780000D03*
X130000000Y-164180000D03*
X133126272Y-163465570D03*
X121750000Y-148500000D03*
X121750000Y-150000000D03*
X123250000Y-81750000D03*
X125099879Y-106735812D03*
X123250000Y-84250000D03*
X124300003Y-106750000D03*
X123250000Y-86750000D03*
X123500000Y-106750000D03*
X122699997Y-106750000D03*
X122750000Y-89250000D03*
X133000000Y-147250000D03*
X136000000Y-146750000D03*
X118000000Y-161500000D03*
X124300003Y-121250000D03*
X105000000Y-61500000D03*
X117975029Y-114806017D03*
X120600000Y-114275907D03*
X117500000Y-75000000D03*
X104199997Y-61500000D03*
X117000000Y-163000000D03*
X123500000Y-121250000D03*
X136500055Y-112757127D03*
X133250000Y-112250000D03*
X122900000Y-127000000D03*
X132000000Y-117250000D03*
X125250000Y-151000000D03*
X136000000Y-150500000D03*
X133000000Y-151250000D03*
X115250000Y-53050003D03*
X105568176Y-43500000D03*
X126250000Y-109750000D03*
X134750000Y-116250000D03*
X135750000Y-122750000D03*
X129433971Y-112476202D03*
X126750000Y-106750000D03*
X121000000Y-63000000D03*
X108203300Y-50203300D03*
X104985735Y-55514265D03*
X120600000Y-115250000D03*
X117500000Y-76000000D03*
X127500002Y-107028391D03*
X108146415Y-56605055D03*
X128750000Y-113250000D03*
X105568176Y-42500000D03*
X115250000Y-52250000D03*
X122900000Y-128250000D03*
X137079286Y-113308937D03*
X132269899Y-113304864D03*
X122500000Y-163180000D03*
X124750000Y-164680000D03*
D26*
X120448404Y-113216109D02*
X120380461Y-113216109D01*
X120179029Y-113014677D02*
X120179029Y-71446301D01*
X110600443Y-57625000D02*
X110625000Y-57625000D01*
X110625000Y-57625000D02*
X119000000Y-66000000D01*
X119000000Y-66000000D02*
X119000000Y-70267272D01*
X120380461Y-113216109D02*
X120179029Y-113014677D01*
X120179029Y-71446301D02*
X119000000Y-70267272D01*
X127500000Y-31500000D02*
X129650003Y-31500000D01*
X130000000Y-35750000D02*
X134500000Y-40250000D01*
X127750000Y-115182900D02*
X127750000Y-117750000D01*
X134500000Y-108432900D02*
X127750000Y-115182900D01*
X134500000Y-40250000D02*
X134500000Y-108432900D01*
X135000000Y-108500000D02*
X135000000Y-35750000D01*
X135000000Y-35750000D02*
X130000000Y-30750000D01*
X128500000Y-115000000D02*
X135000000Y-108500000D01*
X128549995Y-117747054D02*
X128500000Y-117697059D01*
X128500000Y-117697059D02*
X128500000Y-115000000D01*
X126500000Y-37000000D02*
X130000000Y-37000000D01*
X112001490Y-64291673D02*
X111520874Y-64772290D01*
X111520874Y-64772290D02*
X111520874Y-64772289D01*
X110672348Y-63923763D02*
X110601637Y-63994473D01*
X114499923Y-66884396D02*
X114236158Y-67148162D01*
X112298689Y-65832947D02*
X112581531Y-66115789D01*
X118976029Y-72227444D02*
X118976029Y-116009618D01*
X113600852Y-65577299D02*
X113685704Y-65662151D01*
X113811893Y-66723897D02*
X114075659Y-66460131D01*
X110417792Y-63329796D02*
X110731347Y-63016238D01*
X111916638Y-63867409D02*
X112001490Y-63952261D01*
X118976029Y-116009618D02*
X118235648Y-116749999D01*
X111520874Y-64772289D02*
X111450163Y-64842999D01*
X109400000Y-62651415D02*
X110078380Y-63329795D01*
X110672347Y-63923764D02*
X111155611Y-63440503D01*
X111070759Y-63016239D02*
X111155611Y-63101091D01*
X112722953Y-66115789D02*
X113261440Y-65577298D01*
X111025901Y-64418737D02*
X111577226Y-63867408D01*
X113147215Y-66681473D02*
X113430057Y-66964315D01*
X114415071Y-66460132D02*
X114499923Y-66544984D01*
X113217926Y-66469341D02*
X113147215Y-66540051D01*
X112298689Y-65691525D02*
X112845745Y-65144473D01*
X110601637Y-64135895D02*
X110884479Y-64418737D01*
X113571479Y-66964315D02*
X113811893Y-66723897D01*
X112760893Y-64720209D02*
X112845745Y-64805061D01*
X111874427Y-65267263D02*
X112421479Y-64720207D01*
X114236157Y-67487572D02*
X118976029Y-72227444D01*
X111450163Y-64984421D02*
X111733005Y-65267263D01*
X110672347Y-63923764D02*
X110672348Y-63923763D01*
X113685704Y-66001563D02*
X113217926Y-66469342D01*
X113217926Y-66469342D02*
X113217926Y-66469341D01*
X111733005Y-65267263D02*
G75*
G03*
X111874427Y-65267263I70711J70713D01*
G01*
X110884479Y-64418737D02*
G75*
G03*
X111025901Y-64418737I70711J70713D01*
G01*
X113430057Y-66964315D02*
G75*
G03*
X113571479Y-66964315I70711J70713D01*
G01*
X111577226Y-63867408D02*
G75*
G02*
X111916606Y-63867440I169674J-169692D01*
G01*
X112421479Y-64720207D02*
G75*
G02*
X112760908Y-64720194I169721J-169693D01*
G01*
X114075659Y-66460131D02*
G75*
G02*
X114415107Y-66460096I169741J-169669D01*
G01*
X112581531Y-66115789D02*
G75*
G03*
X112722953Y-66115789I70711J70713D01*
G01*
X112845745Y-64805061D02*
G75*
G02*
X112845778Y-65144506I-169745J-169739D01*
G01*
X113147215Y-66540051D02*
G75*
G03*
X113147177Y-66681511I70685J-70749D01*
G01*
X110731347Y-63016238D02*
G75*
G02*
X111070807Y-63016191I169753J-169662D01*
G01*
X113685704Y-65662151D02*
G75*
G02*
X113685747Y-66001606I-169704J-169749D01*
G01*
X113261440Y-65577298D02*
G75*
G02*
X113600806Y-65577344I169660J-169702D01*
G01*
X114236158Y-67148162D02*
G75*
G03*
X114236124Y-67487604I169742J-169738D01*
G01*
X111450163Y-64842999D02*
G75*
G03*
X111450173Y-64984411I70737J-70701D01*
G01*
X114499923Y-66544984D02*
G75*
G02*
X114499933Y-66884406I-169723J-169716D01*
G01*
X111155611Y-63101091D02*
G75*
G02*
X111155614Y-63440506I-169711J-169709D01*
G01*
X110078380Y-63329795D02*
G75*
G03*
X110417806Y-63329810I169720J169695D01*
G01*
X112298689Y-65691525D02*
G75*
G03*
X112298725Y-65832911I70711J-70675D01*
G01*
X110601637Y-63994473D02*
G75*
G03*
X110601621Y-64135911I70663J-70727D01*
G01*
X112001490Y-63952261D02*
G75*
G02*
X112001523Y-64291706I-169690J-169739D01*
G01*
X119898991Y-117925728D02*
X120485416Y-118512153D01*
X119377029Y-71778501D02*
X119377029Y-116978038D01*
X119898991Y-117500000D02*
X119898991Y-117925728D01*
X106699997Y-57699997D02*
X118198000Y-69198000D01*
X119377029Y-116978038D02*
X119898991Y-117500000D01*
X106699997Y-54500000D02*
X106699997Y-57699997D01*
X118174264Y-70575736D02*
X119377029Y-71778501D01*
X118198000Y-69198000D02*
X118198000Y-70552000D01*
X118198000Y-70552000D02*
X118174264Y-70575736D01*
X105271391Y-57853343D02*
X106069052Y-57853343D01*
X118847781Y-49851671D02*
X118847781Y-51148329D01*
X118575029Y-115410619D02*
X118235648Y-115750000D01*
X105899994Y-59999937D02*
X118575029Y-72674971D01*
X117887781Y-51388329D02*
X118007781Y-51388329D01*
X105031391Y-57493343D02*
X105031391Y-57613343D01*
X105899994Y-54500000D02*
X105899994Y-57013343D01*
X105271391Y-58453343D02*
X106069052Y-58453343D01*
X105659994Y-57253343D02*
X105271391Y-57253343D01*
X105899994Y-59293343D02*
X105899994Y-59999937D01*
X119087781Y-51388329D02*
X119207781Y-51388329D01*
X105031391Y-58693343D02*
X105031391Y-58813343D01*
X105899994Y-54450060D02*
X109850054Y-50500000D01*
X117647781Y-50740000D02*
X117647781Y-51148329D01*
X119447781Y-51148329D02*
X119447781Y-50740000D01*
X106238109Y-58022400D02*
X106238109Y-58284286D01*
X118247781Y-51148329D02*
X118247781Y-49851671D01*
X105899994Y-54500000D02*
X105899994Y-54450060D01*
X119687781Y-50500000D02*
X125299691Y-50500000D01*
X105271391Y-59053343D02*
X105659994Y-59053343D01*
X109850054Y-50500000D02*
X117407781Y-50500000D01*
X118575029Y-72674971D02*
X118575029Y-115410619D01*
X118487781Y-49611671D02*
X118607781Y-49611671D01*
X105659994Y-59053343D02*
G75*
G02*
X105899957Y-59293343I6J-239957D01*
G01*
X118007781Y-51388329D02*
G75*
G03*
X118247829Y-51148329I19J240029D01*
G01*
X117647781Y-51148329D02*
G75*
G03*
X117887781Y-51388319I240019J29D01*
G01*
X105899994Y-57013343D02*
G75*
G02*
X105659994Y-57253294I-239994J43D01*
G01*
X106069052Y-57853343D02*
G75*
G02*
X106238157Y-58022400I48J-169057D01*
G01*
X105271391Y-57253343D02*
G75*
G03*
X105031443Y-57493343I9J-239957D01*
G01*
X118247781Y-49851671D02*
G75*
G02*
X118487781Y-49611681I240019J-29D01*
G01*
X118607781Y-49611671D02*
G75*
G02*
X118847829Y-49851671I19J-240029D01*
G01*
X119207781Y-51388329D02*
G75*
G03*
X119447829Y-51148329I19J240029D01*
G01*
X118847781Y-51148329D02*
G75*
G03*
X119087781Y-51388319I240019J29D01*
G01*
X106238109Y-58284286D02*
G75*
G02*
X106069052Y-58453309I-169009J-14D01*
G01*
X105031391Y-57613343D02*
G75*
G03*
X105271391Y-57853309I240009J43D01*
G01*
X105031391Y-58813343D02*
G75*
G03*
X105271391Y-59053309I240009J43D01*
G01*
X105271391Y-58453343D02*
G75*
G03*
X105031443Y-58693343I9J-239957D01*
G01*
X119447781Y-50740000D02*
G75*
G02*
X119687781Y-50499981I240019J0D01*
G01*
X117407781Y-50500000D02*
G75*
G02*
X117647800Y-50740000I19J-240000D01*
G01*
X110675659Y-58872130D02*
X110760511Y-58956982D01*
X112195210Y-61595211D02*
X118599000Y-67999000D01*
X111524256Y-59720582D02*
X111609108Y-59805434D01*
X110752714Y-60152714D02*
X111184844Y-59720581D01*
X110752714Y-60152713D02*
X110752714Y-60152714D01*
X114581823Y-55740000D02*
X114581823Y-56229188D01*
X112372756Y-60569136D02*
X112457608Y-60653988D01*
X119778029Y-71612401D02*
X119778029Y-115573444D01*
X111176978Y-60576978D02*
X110956973Y-60796982D01*
X110956973Y-61136394D02*
X111041825Y-61221246D01*
X115281823Y-55300000D02*
X115681823Y-55300000D01*
X111381237Y-61221246D02*
X111601241Y-61001241D01*
X119778029Y-115573444D02*
X120499991Y-116295406D01*
X110760511Y-59296394D02*
X110498156Y-59558746D01*
X110328451Y-59728451D02*
X110108467Y-59948434D01*
X118599000Y-70433372D02*
X119778029Y-71612401D01*
X117581823Y-56210732D02*
X117581823Y-55400000D01*
X117681823Y-55300000D02*
X118081823Y-55300000D01*
X114821823Y-56469188D02*
X114941823Y-56469188D01*
X118599000Y-67999000D02*
X118599000Y-70433372D01*
X111176977Y-60576978D02*
X111176978Y-60576978D01*
X110108467Y-60287845D02*
X110193319Y-60372697D01*
X111609108Y-60144846D02*
X111176977Y-60576978D01*
X118421823Y-56401439D02*
X118541823Y-56401439D01*
X116381823Y-56223048D02*
X116381823Y-55400000D01*
X117221823Y-56450732D02*
X117341823Y-56450732D01*
X110328450Y-59728452D02*
X110328451Y-59728451D01*
X111601241Y-61001241D02*
X111770945Y-60831534D01*
X110498156Y-59558746D02*
X110328450Y-59728452D01*
X110532731Y-60372697D02*
X110752714Y-60152713D01*
X116981823Y-55400000D02*
X116981823Y-56210732D01*
X118781823Y-56161439D02*
X118781823Y-55740000D01*
X118181823Y-55400000D02*
X118181823Y-56161439D01*
X115181823Y-56229188D02*
X115181823Y-55400000D01*
X115781823Y-55400000D02*
X115781823Y-56223048D01*
X110100000Y-55500000D02*
X114341823Y-55500000D01*
X116481823Y-55300000D02*
X116881823Y-55300000D01*
X108100000Y-57500000D02*
X109734483Y-59134483D01*
X119021823Y-55500000D02*
X125299691Y-55500000D01*
X111770945Y-60831534D02*
X112033344Y-60569135D01*
X116021823Y-56463048D02*
X116141823Y-56463048D01*
X108100000Y-57500000D02*
X110100000Y-55500000D01*
X112457608Y-60993400D02*
X112195210Y-61255799D01*
X110073895Y-59134484D02*
X110336247Y-58872129D01*
X110760511Y-58956982D02*
G75*
G02*
X110760523Y-59296406I-169711J-169718D01*
G01*
X112457608Y-60653988D02*
G75*
G02*
X112457614Y-60993406I-169708J-169712D01*
G01*
X118081823Y-55300000D02*
G75*
G02*
X118181800Y-55400000I-23J-100000D01*
G01*
X111609108Y-59805434D02*
G75*
G02*
X111609068Y-60144806I-169708J-169666D01*
G01*
X109734483Y-59134483D02*
G75*
G03*
X110073906Y-59134495I169717J169683D01*
G01*
X115781823Y-56223048D02*
G75*
G03*
X116021823Y-56462977I239977J48D01*
G01*
X115181823Y-55400000D02*
G75*
G02*
X115281823Y-55300023I99977J0D01*
G01*
X114341823Y-55500000D02*
G75*
G02*
X114581800Y-55740000I-23J-240000D01*
G01*
X117341823Y-56450732D02*
G75*
G03*
X117581832Y-56210732I-23J240032D01*
G01*
X118541823Y-56401439D02*
G75*
G03*
X118781839Y-56161439I-23J240039D01*
G01*
X110336247Y-58872129D02*
G75*
G02*
X110675707Y-58872082I169753J-169671D01*
G01*
X111041825Y-61221246D02*
G75*
G03*
X111381237Y-61221246I169706J169704D01*
G01*
X116381823Y-55400000D02*
G75*
G02*
X116481823Y-55300023I99977J0D01*
G01*
X118781823Y-55740000D02*
G75*
G02*
X119021823Y-55500023I239977J0D01*
G01*
X110956973Y-60796982D02*
G75*
G03*
X110956961Y-61136406I169727J-169718D01*
G01*
X117581823Y-55400000D02*
G75*
G02*
X117681823Y-55300023I99977J0D01*
G01*
X118181823Y-56161439D02*
G75*
G03*
X118421823Y-56401377I239977J39D01*
G01*
X110193319Y-60372697D02*
G75*
G03*
X110532731Y-60372697I169706J169704D01*
G01*
X114941823Y-56469188D02*
G75*
G03*
X115181788Y-56229188I-23J239988D01*
G01*
X110108467Y-59948434D02*
G75*
G03*
X110108506Y-60287806I169733J-169666D01*
G01*
X115681823Y-55300000D02*
G75*
G02*
X115781800Y-55400000I-23J-100000D01*
G01*
X112195210Y-61255799D02*
G75*
G03*
X112195215Y-61595206I169690J-169701D01*
G01*
X114581823Y-56229188D02*
G75*
G03*
X114821823Y-56469177I239977J-12D01*
G01*
X116141823Y-56463048D02*
G75*
G03*
X116381848Y-56223048I-23J240048D01*
G01*
X112033344Y-60569135D02*
G75*
G02*
X112372706Y-60569185I169656J-169665D01*
G01*
X116881823Y-55300000D02*
G75*
G02*
X116981800Y-55400000I-23J-100000D01*
G01*
X116981823Y-56210732D02*
G75*
G03*
X117221823Y-56450677I239977J32D01*
G01*
X111184844Y-59720581D02*
G75*
G02*
X111524206Y-59720631I169656J-169719D01*
G01*
D27*
X129749000Y-95688925D02*
X129749000Y-99811075D01*
X130818719Y-94619206D02*
X129749000Y-95688925D01*
X130818719Y-100880794D02*
X130981356Y-100880794D01*
X129749000Y-99811075D02*
X130818719Y-100880794D01*
X130981356Y-94619206D02*
X130818719Y-94619206D01*
D26*
X99095000Y-49500000D02*
X98500000Y-48905000D01*
X107750000Y-49500000D02*
X99095000Y-49500000D01*
X95000000Y-48905000D02*
X98500000Y-48905000D01*
X118174029Y-114607017D02*
X117975029Y-114806017D01*
X118174029Y-74674029D02*
X118174029Y-114607017D01*
X105000000Y-61500000D02*
X118174029Y-74674029D01*
X115899000Y-73248944D02*
X115899000Y-73249236D01*
X115899000Y-73249236D02*
X117574029Y-74924265D01*
X104199997Y-61549940D02*
X104199997Y-61500000D01*
X115899000Y-73248944D02*
X104199997Y-61549940D01*
X133250000Y-112250000D02*
X132796136Y-112703864D01*
X132020956Y-112703864D02*
X130998000Y-113726820D01*
X130998000Y-121750000D02*
X125748000Y-127000000D01*
X132796136Y-112703864D02*
X132020956Y-112703864D01*
X130998000Y-113726820D02*
X130998000Y-121750000D01*
X125748000Y-127000000D02*
X122900000Y-127000000D01*
X133500000Y-142750000D02*
X133500000Y-118750000D01*
X133500000Y-118750000D02*
X132000000Y-117250000D01*
X125250000Y-151000000D02*
X133500000Y-142750000D01*
X129651003Y-106998943D02*
X126899946Y-109750000D01*
X126899946Y-109750000D02*
X126250000Y-109750000D01*
X129651003Y-106501057D02*
X129651003Y-106998943D01*
X124266737Y-53050003D02*
X128250000Y-57033266D01*
X115250000Y-53050003D02*
X124266737Y-53050003D01*
X128250000Y-57033266D02*
X128250000Y-105100054D01*
X128250000Y-105100054D02*
X129651003Y-106501057D01*
X126750000Y-68750000D02*
X126750000Y-106750000D01*
X121000000Y-63000000D02*
X126750000Y-68750000D01*
X103598997Y-62098997D02*
X103598997Y-56901003D01*
X103598997Y-56901003D02*
X104985735Y-55514265D01*
X117500000Y-76000000D02*
X103598997Y-62098997D01*
X125548634Y-54899000D02*
X109852470Y-54899000D01*
X127500002Y-56850368D02*
X125548634Y-54899000D01*
X109852470Y-54899000D02*
X108146415Y-56605055D01*
X127500002Y-107028391D02*
X127500002Y-56850368D01*
X124033834Y-52250000D02*
X115250000Y-52250000D01*
X128750000Y-108467046D02*
X130052003Y-107165043D01*
X128750000Y-113250000D02*
X128750000Y-108467046D01*
X128651000Y-104500000D02*
X128651000Y-56867166D01*
X130052003Y-105901003D02*
X128651000Y-104500000D01*
X128651000Y-56867166D02*
X124033834Y-52250000D01*
X130052003Y-107165043D02*
X130052003Y-105901003D01*
X131399000Y-122351000D02*
X131399000Y-114175763D01*
X131399000Y-114175763D02*
X132269899Y-113304864D01*
X124775851Y-128250000D02*
X125141053Y-128250000D01*
X122900000Y-128250000D02*
X123941053Y-128250000D01*
X124175851Y-128484798D02*
X124541053Y-128484798D01*
X125141053Y-128250000D02*
X125500000Y-128250000D01*
X125959619Y-127790380D02*
X126212087Y-127537913D01*
X125500000Y-128250000D02*
X125959619Y-127790380D01*
X126212087Y-127537913D02*
X131399000Y-122351000D01*
X124541053Y-128484798D02*
G75*
G03*
X124658498Y-128367399I47J117398D01*
G01*
X124658452Y-128367399D02*
G75*
G02*
X124775851Y-128250052I117348J-1D01*
G01*
X123941053Y-128250000D02*
G75*
G02*
X124058500Y-128367399I47J-117400D01*
G01*
X124058452Y-128367399D02*
G75*
G03*
X124175851Y-128484748I117348J-1D01*
G01*
M02*
