M48
; DRILL file {KiCad 9.0.6+1} date 2026-01-26T17:53:22+0000
; FORMAT={-:-/ absolute / inch / decimal}
; #@! TF.CreationDate,2026-01-26T17:53:22+00:00
; #@! TF.GenerationSoftware,Kicad,Pcbnew,9.0.6+1
; #@! TF.FileFunction,Plated,1,4,PTH
FMAT,2
INCH
; #@! TA.AperFunction,Plated,PTH,ViaDrill
T1C0.0118
; #@! TA.AperFunction,Plated,PTH,ComponentDrill
T2C0.0236
; #@! TA.AperFunction,Plated,PTH,ComponentDrill
T3C0.0315
; #@! TA.AperFunction,Plated,PTH,ComponentDrill
T4C0.0354
; #@! TA.AperFunction,Plated,PTH,ComponentDrill
T5C0.0394
; #@! TA.AperFunction,Plated,PTH,ComponentDrill
T6C0.0433
; #@! TA.AperFunction,Plated,PTH,ComponentDrill
T7C0.0453
; #@! TA.AperFunction,Plated,PTH,ComponentDrill
T8C0.1260
%
G90
G05
T1
X4.1024Y-2.4213
X4.124Y-2.2343
X4.1333Y-2.1856
X4.1339Y-2.4213
X4.1562Y-1.6732
X4.1562Y-1.7126
X4.1634Y-1.9724
X4.1693Y-2.1457
X4.1831Y-2.4311
X4.1831Y-2.7165
X4.1831Y-3.7992
X4.2008Y-2.1457
X4.2199Y-1.9724
X4.2205Y-1.6742
X4.2323Y-2.1457
X4.2323Y-2.1949
X4.2323Y-2.3917
X4.2323Y-3.6024
X4.2323Y-3.7992
X4.2421Y-1.9488
X4.252Y-1.6732
X4.2559Y-2.2638
X4.2577Y-2.2285
X4.26Y-1.9765
X4.2647Y-2.1447
X4.2815Y-2.9626
X4.2815Y-3.7992
X4.3071Y-2.4666
X4.3307Y-3.1988
X4.3307Y-3.7992
X4.3543Y-2.2687
X4.3898Y-1.7323
X4.4193Y-2.0571
X4.4783Y-1.8307
X4.4783Y-2.1063
X4.5374Y-2.0571
X4.5374Y-2.0886
X4.5768Y-1.9488
X4.6063Y-6.3681
X4.6063Y-6.4173
X4.626Y-2.126
X4.626Y-2.9528
X4.626Y-2.9921
X4.6447Y-4.5199
X4.6549Y-4.5571
X4.6549Y-4.5965
X4.6555Y-1.8701
X4.6949Y-1.6732
X4.7183Y-2.7559
X4.7244Y-0.8563
X4.7421Y-4.4573
X4.7435Y-4.6658
X4.7441Y-4.5786
X4.748Y-4.4991
X4.748Y-4.5374
X4.7628Y-2.5154
X4.7638Y-2.4803
X4.7834Y-4.6457
X4.7835Y-1.0827
X4.7933Y-5.8465
X4.7933Y-5.9055
X4.813Y-4.3209
X4.8228Y-1.8307
X4.8228Y-6.4244
X4.8307Y-4.2028
X4.8307Y-4.6457
X4.8327Y-0.9449
X4.8327Y-3.5138
X4.8327Y-4.6063
X4.8455Y-4.3868
X4.8524Y-3.2185
X4.8524Y-3.3169
X4.8524Y-3.4154
X4.8622Y-1.5256
X4.8622Y-4.2028
X4.8622Y-4.6457
X4.8622Y-4.7736
X4.8937Y-4.2028
X4.8937Y-4.7736
X4.8996Y-2.3543
X4.9114Y-6.4835
X4.9213Y-6.4469
X4.9252Y-4.2022
X4.9311Y-2.4902
X4.9311Y-2.5787
X4.9311Y-5.9449
X4.9331Y-1.9882
X4.9331Y-2.185
X4.9331Y-2.3819
X4.9331Y-2.7756
X4.9331Y-2.9724
X4.9567Y-4.2029
X4.9705Y-4.3209
X4.9803Y-1.4567
X4.9902Y-4.2028
X5.0Y-1.2992
X5.0197Y-1.2402
X5.0197Y-4.2137
X5.0295Y-4.6358
X5.0492Y-4.2028
X5.061Y-4.6357
X5.0807Y-4.2028
X5.0886Y-4.6654
X5.0953Y-4.4283
X5.1043Y-1.2402
X5.1181Y-1.2106
X5.1181Y-1.2894
X5.1181Y-1.4075
X5.1181Y-1.4567
X5.1181Y-1.5453
X5.1181Y-1.5945
X5.1181Y-6.4638
X5.128Y-2.4705
X5.1378Y-3.8484
X5.1537Y-6.3299
X5.1537Y-6.578
X5.1553Y-6.389
X5.1553Y-6.5071
X5.1567Y-3.7252
X5.1567Y-3.9717
X5.1575Y-3.7598
X5.1575Y-3.937
X5.1969Y-3.6319
X5.1969Y-4.6161
X5.1969Y-4.6654
X5.2075Y-4.4608
X5.2087Y-4.4134
X5.2165Y-5.4035
X5.2264Y-4.2717
X5.2362Y-5.7972
X5.2362Y-5.9547
X5.2412Y-6.4357
X5.2461Y-1.2402
X5.2461Y-2.3917
X5.2461Y-4.4193
X5.2854Y-5.2854
X5.3051Y-4.5768
X5.3051Y-5.5217
X5.315Y-4.311
X5.3445Y-4.8327
X5.3543Y-5.7776
X5.3543Y-5.9252
X5.3642Y-5.6004
X5.374Y-4.4393
X5.3937Y-4.2618
X5.3968Y-4.461
X5.4134Y-5.4035
T3
X4.6063Y-3.937
X4.6063Y-4.0748
T4
X4.2747Y-5.7609
X4.2747Y-5.9971
X4.3731Y-5.7609
X4.3731Y-5.9971
X4.4716Y-5.7609
X4.4716Y-5.9971
T5
X3.7402Y-1.5982
X3.7402Y-1.7073
X3.7402Y-1.8163
X3.7402Y-1.9254
X3.7402Y-3.0972
X3.7402Y-3.2063
X3.7402Y-3.3154
X3.7402Y-3.4244
X3.7465Y-5.972
X3.7465Y-6.0811
X3.7465Y-6.1902
X3.7465Y-6.2992
X3.852Y-1.5437
X3.852Y-1.6528
X3.852Y-1.7618
X3.852Y-1.8709
X3.852Y-1.9799
X3.852Y-3.0427
X3.852Y-3.1518
X3.852Y-3.2608
X3.852Y-3.3699
X3.852Y-3.4789
X3.8583Y-5.9175
X3.8583Y-6.0266
X3.8583Y-6.1356
X3.8583Y-6.2447
X3.8583Y-6.3537
X4.0748Y-6.1811
X4.0748Y-6.2811
T6
X4.0354Y-0.8957
X4.0354Y-1.0728
X4.2913Y-0.8957
X4.2913Y-1.0728
T7
X3.7402Y-4.0945
X3.7402Y-4.2913
X3.7402Y-4.4882
X3.7402Y-4.685
X3.7402Y-5.0787
X3.7402Y-5.2756
X3.937Y-4.0945
X3.937Y-4.2913
X3.937Y-4.4882
X3.937Y-4.685
X3.937Y-5.0787
X3.937Y-5.2756
T8
X3.7402Y-0.9843
X3.7402Y-1.2697
X3.7402Y-2.2539
X3.7402Y-2.7687
X3.7402Y-3.753
X3.7402Y-6.8898
X3.7465Y-5.6435
X3.7465Y-6.6278
X5.315Y-0.9843
X5.315Y-6.8898
T2
G00X5.1998Y-6.2839
M15
G01X5.2431Y-6.2839
M16
G05
G00X5.1998Y-6.624
M15
G01X5.2431Y-6.624
M16
G05
G00X5.2096Y-3.6783
M15
G01X5.253Y-3.6783
M16
G05
G00X5.2096Y-4.0185
M15
G01X5.253Y-4.0185
M16
G05
G00X5.3711Y-6.2839
M15
G01X5.4026Y-6.2839
M16
G05
G00X5.3711Y-6.624
M15
G01X5.4026Y-6.624
M16
G05
G00X5.3809Y-3.6783
M15
G01X5.4124Y-3.6783
M16
G05
G00X5.3809Y-4.0185
M15
G01X5.4124Y-4.0185
M16
G05
M30
