G04 #@! TF.GenerationSoftware,KiCad,Pcbnew,9.0.7+1*
G04 #@! TF.CreationDate,2026-03-22T10:50:57+00:00*
G04 #@! TF.ProjectId,sertest-ng,73657274-6573-4742-9d6e-672e6b696361,0.2*
G04 #@! TF.SameCoordinates,Original*
G04 #@! TF.FileFunction,Soldermask,Bot*
G04 #@! TF.FilePolarity,Negative*
%FSLAX46Y46*%
G04 Gerber Fmt 4.6, Leading zero omitted, Abs format (unit mm)*
G04 Created by KiCad (PCBNEW 9.0.7+1) date 2026-03-22 10:50:57*
%MOMM*%
%LPD*%
G01*
G04 APERTURE LIST*
%ADD10C,2.000000*%
%ADD11C,5.500000*%
%ADD12R,3.000000X1.500000*%
%ADD13O,3.000000X1.500000*%
%ADD14C,0.650000*%
%ADD15O,2.100000X1.000000*%
%ADD16O,1.800000X1.000000*%
%ADD17C,4.000000*%
%ADD18R,1.600000X1.600000*%
%ADD19C,1.600000*%
%ADD20R,1.700000X1.700000*%
%ADD21C,1.700000*%
%ADD22C,2.374900*%
%ADD23C,0.990600*%
%ADD24R,1.800000X1.800000*%
%ADD25C,1.800000*%
G04 APERTURE END LIST*
D10*
X102500000Y-22750000D03*
X109000000Y-22750000D03*
X102500000Y-27250000D03*
X109000000Y-27250000D03*
D11*
X95000000Y-25000000D03*
G36*
G01*
X98750001Y-103250000D02*
X101249999Y-103250000D01*
G75*
G02*
X101500000Y-103500001I0J-250001D01*
G01*
X101500000Y-104499999D01*
G75*
G02*
X101249999Y-104750000I-250001J0D01*
G01*
X98750001Y-104750000D01*
G75*
G02*
X98500000Y-104499999I0J250001D01*
G01*
X98500000Y-103500001D01*
G75*
G02*
X98750001Y-103250000I250001J0D01*
G01*
G37*
D12*
X95000000Y-104000000D03*
D13*
X100000000Y-109000000D03*
X95000000Y-109000000D03*
X100000000Y-114000000D03*
X95000000Y-114000000D03*
X100000000Y-119000000D03*
X95000000Y-119000000D03*
D14*
X133395000Y-100640000D03*
X133395000Y-94860000D03*
D15*
X132875000Y-102070000D03*
D16*
X137075000Y-102070000D03*
D15*
X132875000Y-93430000D03*
D16*
X137075000Y-93430000D03*
D17*
X95000000Y-70325000D03*
X95000000Y-95325000D03*
D18*
X97840000Y-88365000D03*
D19*
X97840000Y-85595000D03*
X97840000Y-82825000D03*
X97840000Y-80055000D03*
X97840000Y-77285000D03*
X95000000Y-86980000D03*
X95000000Y-84210000D03*
X95000000Y-81440000D03*
X95000000Y-78670000D03*
D17*
X95160000Y-143345000D03*
X95160000Y-168345000D03*
D18*
X98000000Y-150305000D03*
D19*
X98000000Y-153075000D03*
X98000000Y-155845000D03*
X98000000Y-158615000D03*
X98000000Y-161385000D03*
X95160000Y-151690000D03*
X95160000Y-154460000D03*
X95160000Y-157230000D03*
X95160000Y-160000000D03*
D11*
X95000000Y-175000000D03*
D17*
X95000000Y-32250000D03*
X95000000Y-57250000D03*
D18*
X97840000Y-50290000D03*
D19*
X97840000Y-47520000D03*
X97840000Y-44750000D03*
X97840000Y-41980000D03*
X97840000Y-39210000D03*
X95000000Y-48905000D03*
X95000000Y-46135000D03*
X95000000Y-43365000D03*
X95000000Y-40595000D03*
D14*
X133145000Y-166820000D03*
X133145000Y-161040000D03*
D15*
X132625000Y-168250000D03*
D16*
X136825000Y-168250000D03*
D15*
X132625000Y-159610000D03*
D16*
X136825000Y-159610000D03*
D20*
X103500000Y-159540000D03*
D21*
X103500000Y-157000000D03*
D11*
X135000000Y-175000000D03*
D22*
X121675000Y-22460000D03*
D23*
X119135000Y-22460000D03*
D22*
X116595000Y-22460000D03*
X121675000Y-25635000D03*
X116595000Y-25635000D03*
D23*
X120151000Y-27540000D03*
X118119000Y-27540000D03*
D24*
X108577500Y-146327500D03*
D25*
X111077500Y-146327500D03*
X113577500Y-146327500D03*
X108577500Y-152327500D03*
X111077500Y-152327500D03*
X113577500Y-152327500D03*
G36*
G01*
X117550000Y-104300000D02*
X116450000Y-104300000D01*
G75*
G02*
X116200000Y-104050000I0J250000D01*
G01*
X116200000Y-102950000D01*
G75*
G02*
X116450000Y-102700000I250000J0D01*
G01*
X117550000Y-102700000D01*
G75*
G02*
X117800000Y-102950000I0J-250000D01*
G01*
X117800000Y-104050000D01*
G75*
G02*
X117550000Y-104300000I-250000J0D01*
G01*
G37*
D19*
X117000000Y-100000000D03*
D11*
X135000000Y-25000000D03*
G36*
G01*
X98750001Y-128250000D02*
X101249999Y-128250000D01*
G75*
G02*
X101500000Y-128500001I0J-250001D01*
G01*
X101500000Y-129499999D01*
G75*
G02*
X101249999Y-129750000I-250001J0D01*
G01*
X98750001Y-129750000D01*
G75*
G02*
X98500000Y-129499999I0J250001D01*
G01*
X98500000Y-128500001D01*
G75*
G02*
X98750001Y-128250000I250001J0D01*
G01*
G37*
D12*
X95000000Y-129000000D03*
D13*
X100000000Y-134000000D03*
X95000000Y-134000000D03*
M02*
